<svg width="284" height="140" viewBox="0 0 284 140" fill="none" xmlns="http://www.w3.org/2000/svg">
<path d="M153.148 84.469C134.258 97.0946 113.31 108.316 91.5874 117.015C117.54 124.38 144.579 110.016 153.148 84.469Z" fill="white"/>
<path d="M146.298 38.6304C150.601 38.1156 153.471 38.6195 154.406 40.2946C155.333 41.959 154.231 44.5495 151.5 47.7602C150.099 44.5862 148.411 41.5863 146.298 38.6304ZM155.711 64.8748C155.607 63.2965 155.432 61.7176 155.177 60.1413C133.202 77.0477 94.6385 96.8478 70.5272 104.959C71.9472 106.313 73.4421 107.563 74.9906 108.732C50.2354 117.048 30.8309 118.328 26.4117 110.4C21.978 102.447 34.1776 88.8572 55.1094 73.9833C55.3829 76.3653 55.8284 78.7442 56.4493 81.0992C42.909 91.3863 35.3875 99.9281 37.5282 103.768C44.6823 116.603 136.439 71.4971 162.903 45.1392C169.237 38.8305 172.51 34.129 171.035 31.4842C168.964 27.7681 158.272 29.2169 143.025 34.5185C141.563 32.8671 140.007 31.3281 138.369 29.9036C160.703 21.7975 177.707 19.676 181.861 27.1277C186.164 34.8461 175.22 49.4139 155.711 64.8748ZM63.124 96.0501C58.2552 96.8542 55.001 96.4692 53.9931 94.6606C52.9494 92.7886 54.4577 89.69 57.951 85.8359C59.3874 89.7003 61.1188 92.9918 63.124 96.0501ZM207.114 13.8706C201.1 3.08349 170.841 9.48814 132.908 25.7733C117.786 15.8716 97.8695 14.437 80.9531 23.7562C64.4649 32.8409 55.0423 49.8209 54.7825 67.448C18.3293 90.8683 -4.75037 113.054 1.51418 124.294C9.652 138.89 63.182 125.757 119.046 95.5096C174.91 65.2637 215.251 28.4671 207.114 13.8706Z" fill="white"/>
<g opacity="0.2">
<path d="M146.716 96.8005C148.036 98.936 141.091 105.67 131.205 111.843C121.318 118.015 112.234 121.288 110.913 119.153C109.594 117.018 116.538 110.283 126.425 104.11C136.311 97.9382 145.396 94.6654 146.716 96.8005Z" fill="#000072"/>
</g>
<path d="M90.5356 103.187C92.4607 104.464 94.8112 105.588 97.4807 106.359C98.959 106.787 100.533 107.107 102.187 107.284C104.281 107.511 106.503 107.509 108.814 107.212C109.284 107.151 109.755 107.079 110.231 106.994C111.912 106.695 112.885 104.911 112.254 103.317C112.06 102.828 111.737 102.42 111.332 102.125C110.857 101.776 110.271 101.582 109.654 101.599C108.355 101.637 106.425 101.526 104.046 100.904C102.531 100.508 100.834 99.9042 99.0012 98.9979C97.2358 98.1272 95.3455 96.9768 93.372 95.4588C92.7151 94.9569 92.0496 94.4126 91.3766 93.8249C91.3766 93.8249 87.9468 90.6926 85.3626 94.3127C83.8684 96.4054 86.0429 100.209 90.5356 103.187Z" fill="#FA9B27"/>
<path d="M90.5341 103.193C92.4602 104.471 94.8119 105.596 97.4829 106.367C96.8327 104.163 97.0704 102.129 98.2033 100.172C98.4562 99.7339 98.7323 99.3432 99.0042 99.0004C97.2379 98.1291 95.3465 96.9776 93.3719 95.4585C93.1307 95.7921 92.8908 96.1496 92.6597 96.5291C91.377 98.6353 90.6664 100.88 90.5341 103.193Z" fill="#F96328"/>
<path d="M102.181 107.284C104.275 107.511 106.497 107.509 108.809 107.212C108.902 105.16 110.279 103.272 111.327 102.123C110.852 101.774 110.266 101.58 109.648 101.597C108.349 101.635 106.419 101.524 104.04 100.901C102.827 103 102.204 105.165 102.181 107.284Z" fill="#F96328"/>
<g opacity="0.3">
<path d="M85.3592 94.3137C85.588 93.9933 85.8233 93.7284 86.0627 93.5073C86.046 95.6399 88.1479 98.5118 91.7039 100.867C93.6294 102.144 95.9804 103.268 98.6502 104.04C100.129 104.468 101.703 104.787 103.358 104.965C105.451 105.192 107.673 105.191 109.985 104.895C110.454 104.835 110.925 104.762 111.401 104.678C111.792 104.608 112.144 104.458 112.447 104.249C112.485 105.544 111.59 106.753 110.232 106.994C109.757 107.079 109.285 107.151 108.816 107.211C106.504 107.508 104.283 107.509 102.189 107.282C100.534 107.104 98.9596 106.784 97.4811 106.356C94.8112 105.585 92.4603 104.46 90.5348 103.184C86.0409 100.207 83.8654 96.4043 85.3592 94.3137Z" fill="#000072"/>
</g>
<g opacity="0.7">
<path d="M111.217 104.312C111.024 103.823 110.7 103.415 110.296 103.12C109.82 102.771 109.235 102.578 108.617 102.594C107.317 102.632 105.388 102.52 103.009 101.898C101.493 101.502 99.796 100.898 97.963 99.9918C96.1972 99.1212 94.3064 97.9709 92.3324 96.4533C91.6753 95.9515 91.0096 95.4073 90.3359 94.8197C90.3359 94.8197 87.8462 92.5499 85.5113 94.1138C88.0758 90.8181 91.3749 93.8248 91.3749 93.8248C92.0486 94.4129 92.7137 94.9571 93.3708 95.4589C95.3449 96.9759 97.2357 98.1262 99.0014 98.9974C100.834 99.9037 102.532 100.507 104.048 100.903C106.427 101.526 108.356 101.637 109.656 101.6C110.273 101.583 110.859 101.776 111.335 102.125C111.739 102.42 112.062 102.829 112.256 103.318C112.781 104.64 112.199 106.091 111.025 106.718C111.44 106.022 111.547 105.142 111.217 104.312Z" fill="white"/>
</g>
<path d="M86.8932 93.4418C86.4763 93.7015 86.0883 94.0812 85.7332 94.5792C85.0771 95.4979 85.2633 96.8733 86.2572 98.4518C87.8432 100.971 91.0962 103.419 94.9592 104.999C98.2645 106.352 103.583 107.717 110.15 106.544C110.81 106.426 111.377 106.02 111.705 105.429C112.037 104.83 112.082 104.122 111.83 103.486C111.48 102.605 110.612 102.03 109.668 102.057C106.213 102.155 99.2043 101.26 91.0766 94.1692C91.0554 94.15 89.6219 92.8699 88.0376 93.0395C87.6362 93.0826 87.2534 93.2172 86.8932 93.4418ZM111.415 107.023C111.082 107.23 110.709 107.375 110.311 107.446C98.2383 109.602 88.5259 103.77 85.4854 98.9401C84.2803 97.0248 84.1044 95.2867 84.9907 94.0452C85.8129 92.8936 86.8076 92.2484 87.9462 92.1283C89.9412 91.9183 91.6129 93.4214 91.6828 93.4854C99.5685 100.365 106.319 101.236 109.641 101.142C110.967 101.104 112.187 101.91 112.678 103.149C113.032 104.042 112.968 105.035 112.502 105.875C112.238 106.352 111.863 106.744 111.415 107.023Z" fill="#000072"/>
<path d="M142.576 94.5109C142.688 94.5525 146.935 96.1853 144.039 99.9499C143.162 101.09 141.997 101.984 140.67 102.534C139.338 103.086 137.586 103.427 136.369 102.212C136.369 102.212 135.019 104.496 129.254 108.088L129.249 108.091C123.488 111.68 120.848 111.88 120.848 111.88C120.851 111.888 120.852 111.894 120.855 111.902C121.384 113.525 120.309 114.942 119.23 115.89C118.151 116.84 116.835 117.49 115.428 117.773C110.717 118.721 111.214 114.047 111.214 114.047C110.219 113.42 109.408 112.749 108.751 112.059C108.418 111.711 108.125 111.358 107.866 111.002C106.911 109.69 106.429 108.354 106.214 107.157C106.112 106.608 106.068 106.088 106.06 105.613C106.046 104.912 106.11 104.309 106.185 103.857C106.289 103.231 106.193 102.59 105.92 102.018C105.821 101.811 105.725 101.603 105.635 101.399C105.468 101.025 105.317 100.66 105.18 100.299C104.938 99.6684 104.736 99.0613 104.57 98.4797C104.438 98.018 104.329 97.5728 104.237 97.1472C104.097 96.4887 104.001 95.876 103.937 95.3112C103.87 94.713 103.839 94.1696 103.833 93.6898C103.829 93.3716 103.834 93.0815 103.846 92.8215C103.888 91.8351 104.02 91.282 104.02 91.282L125.409 77.9578C125.409 77.9578 125.973 78.0863 126.89 78.4931C128.502 79.2101 131.208 80.7855 133.855 84.033C134.432 84.74 135.182 85.2896 136.042 85.5903C138.079 86.2985 141.954 88.4365 142.575 94.5103L142.576 94.5109Z" fill="#FA9B27"/>
<path d="M122.413 79.8271L114.795 84.5724L114.646 84.6658L107.029 89.4111C106.997 93.0241 108.188 97.4537 111.937 102.521C111.937 102.521 115.536 103.026 117.985 106.58C117.985 106.58 122.446 107.303 127.013 104.459C131.579 101.614 132.909 97.2831 132.909 97.2831C130.816 93.5071 131.96 90.0487 131.96 90.0487C129.09 84.4332 125.658 81.4 122.413 79.8271Z" fill="white"/>
<path d="M144.028 99.9385C143.151 101.078 141.986 101.972 140.66 102.522C139.328 103.074 137.575 103.414 136.358 102.2C134.995 100.958 134.19 99.2849 134.19 99.2849C140.635 99.818 142.564 94.4997 142.564 94.4997L142.565 94.5003C142.677 94.5419 146.924 96.1744 144.028 99.9385Z" fill="white"/>
<path d="M120.842 111.897C121.389 113.529 120.308 114.954 119.224 115.906C118.145 116.856 116.829 117.507 115.422 117.79C112.672 118.344 111.695 116.98 111.36 115.749C111.128 114.899 111.201 114.114 111.207 114.065L111.207 114.064C111.207 114.064 116.817 114.686 119.197 108.656C119.197 108.656 120.336 110.12 120.842 111.897Z" fill="white"/>
<g opacity="0.3">
<path d="M132.218 89.1001C132.168 89.2365 129.537 96.4904 124.138 99.8507C118.74 103.211 111.083 102.36 110.939 102.344C111.095 102.464 121.644 110.576 111.21 114.039C111.21 114.039 114.423 116.657 119.124 111.465C119.654 110.881 120.626 111.102 120.842 111.863L120.846 111.876C120.846 111.876 123.485 111.676 129.247 108.09C135.009 104.504 136.356 102.221 136.356 102.221C136.353 102.219 136.35 102.216 136.346 102.212C135.762 101.681 135.994 100.709 136.752 100.493C143.481 98.5704 142.561 94.5248 142.561 94.5248C134.84 102.362 132.256 89.2931 132.218 89.1001Z" fill="#000072"/>
</g>
<g opacity="0.3">
<path d="M120.839 111.897C121.386 113.53 120.306 114.957 119.223 115.909C118.144 116.86 116.829 117.511 115.422 117.794C112.674 118.347 111.697 116.981 111.361 115.749C112.981 116.489 116.631 117.209 120.839 111.897Z" fill="#000072"/>
</g>
<g opacity="0.3">
<path d="M136.347 102.211C137.562 103.425 139.314 103.082 140.646 102.528C141.973 101.978 143.138 101.081 144.016 99.9399C145.731 97.7109 144.947 96.2287 143.996 95.3828C143.936 97.1676 142.957 100.77 136.347 102.211Z" fill="#000072"/>
</g>
<g opacity="0.3">
<path d="M126.903 78.4984C123.52 85.0973 118.02 88.5645 117.446 88.9124C117.414 88.932 117.397 88.9423 117.397 88.9423C117.397 88.9423 111.664 92.7017 103.864 92.8115C103.905 91.8257 104.037 91.2729 104.037 91.2729L125.422 77.9631C125.422 77.9631 125.986 78.0917 126.903 78.4984Z" fill="#000072"/>
</g>
<path d="M106.065 93.4946C105.096 94.2356 104.42 94.8465 103.953 95.3246C103.886 94.726 103.855 94.1824 103.851 93.7019C104.701 93.3241 105.515 93.2507 105.981 93.2431C106.114 93.2423 106.172 93.4135 106.065 93.4946Z" fill="#F96328"/>
<path d="M107.065 100.244C106.496 100.68 106.029 101.069 105.646 101.416C105.479 101.042 105.328 100.676 105.192 100.314C105.915 100.055 106.578 99.9985 106.981 99.994C107.114 99.9918 107.17 100.164 107.065 100.244Z" fill="#F96328"/>
<path d="M126.566 80.6946C127.656 80.1518 128.501 79.8149 129.134 79.6062C128.629 79.2812 128.157 79.0117 127.73 78.7934C127.017 79.3914 126.591 80.0909 126.379 80.507C126.319 80.6266 126.446 80.7552 126.566 80.6946Z" fill="#F96328"/>
<path d="M132.144 84.5855C132.785 84.268 133.339 84.0203 133.819 83.8284C133.559 83.5132 133.298 83.2145 133.035 82.9309C132.484 83.4664 132.14 84.0392 131.958 84.3997C131.897 84.5178 132.025 84.6457 132.144 84.5855Z" fill="#F96328"/>
<path d="M108.231 105.447C107.33 106.136 106.682 106.713 106.219 107.177C106.117 106.628 106.075 106.108 106.066 105.632C106.899 105.273 107.69 105.201 108.147 105.195C108.281 105.194 108.338 105.366 108.231 105.447Z" fill="#F96328"/>
<path d="M110.501 110.606C109.759 111.175 109.187 111.666 108.75 112.08C108.418 111.732 108.126 111.379 107.868 111.024C108.86 110.464 109.876 110.363 110.417 110.356C110.55 110.354 110.607 110.524 110.501 110.606Z" fill="#F96328"/>
<path d="M136.194 87.9885C137.208 87.484 138.009 87.1568 138.629 86.9463C138.183 86.6111 137.737 86.3412 137.316 86.1225C136.627 86.7133 136.213 87.3929 136.006 87.8009C135.945 87.9211 136.073 88.0495 136.194 87.9885Z" fill="#F96328"/>
<path d="M139.792 92.3199C140.627 91.9044 141.319 91.6084 141.882 91.3987C141.718 90.9453 141.532 90.5247 141.329 90.1348C140.388 90.7789 139.851 91.6479 139.605 92.132C139.544 92.2515 139.671 92.3794 139.792 92.3199Z" fill="#F96328"/>
<g opacity="0.5">
<path d="M142.578 94.4984C141.955 88.4254 138.079 86.2867 136.041 85.578C135.18 85.277 134.43 84.7274 133.852 84.0203C131.203 80.7726 128.496 79.1967 126.883 78.4792C125.966 78.0723 125.402 77.9431 125.402 77.9431L124.399 78.5669C124.399 78.5669 124.964 78.6961 125.881 79.1025C127.494 79.8205 130.201 81.3958 132.85 84.6441C133.428 85.3507 134.178 85.9009 135.039 86.2018C137.077 86.9105 140.953 89.0486 141.576 95.1222L141.577 95.1223C141.69 95.1644 145.939 96.7982 143.042 100.561C142.561 101.187 141.992 101.738 141.358 102.199C142.402 101.649 143.321 100.877 144.044 99.9376C146.941 96.1744 142.692 94.5406 142.579 94.499L142.578 94.4984Z" fill="white"/>
</g>
<g opacity="0.5">
<path d="M111.296 114.016C106.135 110.765 105.939 106.334 106.208 104.189C106.32 103.282 106.16 102.364 105.783 101.532C104.051 97.7121 103.84 94.5816 103.913 92.8137C103.955 91.8095 104.09 91.2448 104.09 91.2448L105.093 90.6213C105.093 90.6213 104.958 91.1854 104.915 92.1902C104.843 93.9575 105.053 97.0881 106.786 100.908C107.163 101.74 107.323 102.657 107.21 103.565C106.942 105.71 107.137 110.141 112.298 113.392L112.298 113.393C112.285 113.513 111.864 118.055 116.517 117.12C117.291 116.965 118.036 116.698 118.73 116.332C117.774 117.027 116.676 117.511 115.514 117.744C110.862 118.679 111.283 114.137 111.295 114.017L111.296 114.016Z" fill="white"/>
</g>
<path d="M118.393 117.08C117.514 117.628 116.539 118.017 115.518 118.223C113.958 118.537 112.741 118.307 111.903 117.538C110.812 116.539 110.728 114.942 110.743 114.288C105.253 110.693 105.407 105.756 105.735 103.781C105.823 103.251 105.744 102.71 105.508 102.216C102.497 95.9188 103.53 91.3653 103.575 91.1743C103.604 91.0573 103.676 90.9555 103.778 90.8921L114.435 84.2538L114.918 85.0323L104.43 91.5655C104.28 92.4442 103.793 96.5114 106.331 101.821C106.649 102.486 106.755 103.216 106.636 103.932C106.334 105.753 106.199 110.346 111.456 113.658C111.604 113.752 111.686 113.921 111.668 114.095C111.666 114.113 111.493 115.928 112.52 116.865C113.132 117.423 114.08 117.577 115.337 117.324C116.667 117.057 117.91 116.441 118.93 115.544C119.869 114.719 120.889 113.438 120.415 112.025C120.37 111.892 120.389 111.744 120.467 111.627C120.545 111.509 120.672 111.434 120.813 111.423C120.836 111.421 123.455 111.161 129.013 107.699C134.571 104.236 135.964 101.997 135.977 101.975C136.05 101.855 136.174 101.775 136.313 101.758C136.452 101.741 136.592 101.788 136.69 101.887C137.744 102.939 139.341 102.589 140.495 102.111C141.748 101.591 142.848 100.747 143.678 99.6697C144.461 98.6517 144.743 97.7309 144.515 96.9341C144.133 95.5954 142.433 94.9463 142.416 94.94C142.253 94.8789 142.138 94.7304 142.12 94.5565C141.534 88.815 137.967 86.7452 135.893 86.0221C134.975 85.7027 134.148 85.1148 133.502 84.3222C129.974 79.9955 126.311 78.7007 125.481 78.4516L114.993 84.9848L114.511 84.2063L125.168 77.568C125.27 77.504 125.392 77.4836 125.51 77.5105C125.691 77.552 130.006 78.5883 134.209 83.7426C134.747 84.4037 135.433 84.8928 136.191 85.1568C138.438 85.9398 142.277 88.1508 142.998 94.1944C143.59 94.4701 144.982 95.2535 145.391 96.677C145.706 97.7714 145.373 98.9664 144.401 100.23C143.474 101.434 142.244 102.377 140.845 102.957C139.053 103.7 137.546 103.67 136.45 102.88C135.784 103.72 133.912 105.726 129.495 108.477C125.079 111.229 122.456 112.023 121.409 112.249C121.631 113.585 120.99 114.952 119.532 116.234C119.175 116.548 118.794 116.83 118.393 117.08Z" fill="#000072"/>
<path d="M143.001 94.6356C142.983 94.6901 142.968 94.7304 142.953 94.7728C142.938 94.8164 142.921 94.8571 142.905 94.8973C142.873 94.9788 142.839 95.0596 142.801 95.1365C142.73 95.2942 142.648 95.4436 142.569 95.5949C142.483 95.7419 142.399 95.8902 142.305 96.0319C142.207 96.1701 142.117 96.3148 142.01 96.4477C141.599 96.987 141.121 97.4751 140.577 97.8768C140.034 98.2741 139.454 98.6271 138.824 98.8523C138.518 98.9849 138.191 99.0541 137.872 99.1369L137.752 99.1658L137.629 99.1845L137.384 99.2165C137.221 99.2379 137.058 99.2553 136.896 99.2695C136.823 99.2762 136.76 99.223 136.753 99.1502C136.748 99.0914 136.783 99.0382 136.834 99.0173L136.846 99.0123C136.995 98.9516 137.142 98.8936 137.289 98.8395L137.511 98.7588C137.547 98.7461 137.584 98.734 137.62 98.7196L137.727 98.6703L138.152 98.4794C138.297 98.4246 138.43 98.3449 138.565 98.272C139.116 98.0006 139.617 97.6463 140.078 97.2541C140.54 96.8636 140.941 96.4057 141.29 95.9144C141.381 95.7947 141.455 95.6637 141.54 95.5392C141.618 95.4112 141.693 95.2807 141.768 95.1508C141.836 95.0179 141.908 94.8862 141.966 94.7506C141.999 94.683 142.026 94.6157 142.055 94.5489C142.07 94.5153 142.084 94.4817 142.096 94.4496L142.129 94.361L142.139 94.3354C142.228 94.0989 142.491 93.9798 142.727 94.0696C142.954 94.1562 143.072 94.406 143.001 94.6356Z" fill="#000072"/>
<path d="M136.047 102.539C135.981 102.472 135.944 102.42 135.899 102.36C135.856 102.301 135.817 102.243 135.779 102.182C135.705 102.062 135.64 101.936 135.579 101.81C135.46 101.555 135.361 101.293 135.303 101.011C135.293 100.958 135.326 100.907 135.378 100.897C135.404 100.891 135.431 100.898 135.451 100.912C135.686 101.071 135.895 101.239 136.1 101.403L136.399 101.646L136.67 101.871C136.865 102.032 136.893 102.321 136.733 102.517C136.572 102.712 136.284 102.74 136.088 102.578C136.076 102.568 136.065 102.557 136.053 102.546L136.047 102.539Z" fill="#000072"/>
<path d="M139.894 102.697C139.895 102.7 139.892 102.67 139.888 102.652C139.886 102.632 139.882 102.609 139.878 102.587C139.87 102.542 139.862 102.496 139.85 102.449C139.831 102.355 139.803 102.259 139.776 102.162C139.72 101.968 139.65 101.772 139.571 101.576C139.491 101.381 139.4 101.186 139.301 100.991C139.203 100.796 139.096 100.602 138.987 100.401L138.985 100.4C138.961 100.354 138.978 100.297 139.023 100.272C139.054 100.255 139.091 100.258 139.119 100.277C139.216 100.342 139.308 100.411 139.402 100.482C139.491 100.557 139.583 100.629 139.667 100.711C139.84 100.871 139.999 101.047 140.147 101.235C140.292 101.426 140.427 101.629 140.54 101.848C140.596 101.958 140.648 102.072 140.692 102.192C140.715 102.251 140.734 102.313 140.753 102.376C140.762 102.409 140.772 102.44 140.78 102.475C140.787 102.512 140.794 102.537 140.802 102.596C140.83 102.847 140.65 103.073 140.399 103.102C140.149 103.13 139.923 102.948 139.894 102.697Z" fill="#000072"/>
<path d="M143.746 99.7965C143.747 99.7993 143.742 99.7698 143.739 99.7519C143.736 99.7324 143.731 99.7089 143.727 99.6872C143.717 99.6425 143.707 99.5967 143.694 99.5502C143.671 99.4567 143.641 99.3613 143.611 99.2654C143.548 99.0733 143.473 98.8796 143.388 98.6865C143.302 98.4934 143.204 98.302 143.1 98.1098C142.995 97.918 142.882 97.727 142.767 97.5309L142.766 97.5287C142.74 97.4838 142.755 97.4269 142.799 97.4007C142.83 97.3822 142.867 97.3839 142.896 97.4018C142.994 97.4632 143.089 97.5301 143.185 97.5975C143.275 97.6697 143.37 97.7398 143.457 97.819C143.634 97.9731 143.799 98.1443 143.953 98.3278C144.104 98.5139 144.245 98.7117 144.364 98.9279C144.424 99.0363 144.479 99.1478 144.528 99.2661C144.552 99.3247 144.573 99.3866 144.594 99.4489C144.604 99.4815 144.615 99.5118 144.624 99.5465C144.632 99.5834 144.64 99.6087 144.65 99.6661C144.686 99.9167 144.513 100.149 144.263 100.185C144.014 100.221 143.782 100.047 143.746 99.7965Z" fill="#000072"/>
<path d="M134.126 99.3525C133.429 98.7266 132.881 97.9641 132.423 97.1481C131.972 96.3281 131.627 95.4403 131.426 94.5143C131.224 93.5888 131.168 92.625 131.284 91.6841C131.398 90.7441 131.687 89.8287 132.14 89.0187C132.175 88.9545 132.256 88.9321 132.32 88.9677C132.372 88.9971 132.396 89.0552 132.385 89.1106L132.385 89.1134C132.202 89.9998 132.07 90.8698 132.061 91.7409C132.045 92.6112 132.135 93.4746 132.313 94.3249C132.49 95.1746 132.759 96.0091 133.091 96.8265C133.423 97.6428 133.821 98.4461 134.27 99.2263L134.273 99.232C134.3 99.2785 134.285 99.3376 134.238 99.3643C134.202 99.3858 134.156 99.3794 134.126 99.3525Z" fill="#000072"/>
<path d="M111.281 113.611L111.375 113.621C111.409 113.625 111.445 113.627 111.482 113.628C111.554 113.632 111.627 113.637 111.701 113.638C111.849 113.645 111.998 113.639 112.147 113.637C112.296 113.627 112.446 113.617 112.595 113.604C112.744 113.583 112.894 113.574 113.042 113.545C113.635 113.45 114.222 113.292 114.776 113.049C115.33 112.809 115.869 112.516 116.356 112.141C116.481 112.052 116.611 111.968 116.724 111.862L117.083 111.565L117.174 111.491C117.203 111.464 117.23 111.436 117.258 111.409L117.428 111.246C117.542 111.138 117.659 111.031 117.779 110.924L117.788 110.916C117.843 110.868 117.925 110.873 117.973 110.927C118.012 110.972 118.016 111.035 117.987 111.083C117.902 111.222 117.815 111.361 117.723 111.498L117.586 111.704L117.515 111.806L117.436 111.901C117.221 112.151 117.014 112.415 116.759 112.631C116.279 113.097 115.707 113.462 115.111 113.775C114.511 114.084 113.863 114.299 113.199 114.429C113.033 114.466 112.864 114.482 112.697 114.509C112.529 114.532 112.359 114.541 112.189 114.553C112.019 114.558 111.849 114.565 111.677 114.559C111.591 114.559 111.504 114.554 111.417 114.546C111.374 114.543 111.33 114.54 111.285 114.534C111.24 114.529 111.198 114.525 111.141 114.516C110.892 114.477 110.721 114.243 110.76 113.994C110.797 113.753 111.014 113.586 111.252 113.609L111.281 113.611Z" fill="#000072"/>
<path d="M120.403 112.025L120.323 111.681L120.238 111.304C120.182 111.048 120.124 110.785 120.086 110.503C120.079 110.451 120.115 110.402 120.168 110.395C120.194 110.391 120.22 110.399 120.24 110.414C120.467 110.591 120.658 110.796 120.833 111.016C120.919 111.127 121.002 111.241 121.076 111.362C121.114 111.422 121.149 111.484 121.183 111.548C121.217 111.615 121.246 111.671 121.278 111.761L121.28 111.769C121.364 112.007 121.239 112.27 121 112.353C120.762 112.437 120.501 112.311 120.417 112.072C120.412 112.056 120.407 112.04 120.403 112.025Z" fill="#000072"/>
<path d="M119.22 116.067C119.172 116.034 119.152 116.017 119.122 115.993C119.094 115.971 119.071 115.949 119.046 115.926C118.998 115.881 118.951 115.836 118.907 115.79C118.82 115.697 118.742 115.6 118.669 115.5C118.522 115.302 118.401 115.091 118.295 114.876C118.192 114.66 118.105 114.438 118.039 114.212C118.003 114.101 117.979 113.985 117.95 113.872C117.929 113.757 117.908 113.643 117.893 113.527C117.886 113.476 117.922 113.429 117.973 113.423C118.009 113.418 118.042 113.434 118.062 113.462L118.063 113.463C118.194 113.65 118.32 113.832 118.451 114.008C118.582 114.182 118.715 114.351 118.855 114.509C118.994 114.667 119.139 114.816 119.287 114.953C119.362 115.02 119.435 115.087 119.511 115.147C119.548 115.178 119.586 115.206 119.622 115.233C119.64 115.246 119.659 115.261 119.675 115.271C119.69 115.282 119.715 115.299 119.713 115.296C119.925 115.433 119.987 115.717 119.851 115.93C119.715 116.143 119.432 116.204 119.22 116.067Z" fill="#000072"/>
<path d="M114.903 118.236C114.856 118.201 114.836 118.184 114.807 118.159C114.78 118.136 114.758 118.113 114.733 118.089C114.686 118.043 114.641 117.997 114.599 117.949C114.514 117.853 114.439 117.754 114.369 117.652C114.229 117.449 114.114 117.234 114.015 117.016C113.919 116.797 113.839 116.573 113.779 116.345C113.747 116.232 113.727 116.116 113.702 116.002C113.684 115.887 113.667 115.772 113.655 115.656C113.65 115.605 113.688 115.559 113.739 115.553C113.775 115.55 113.807 115.567 113.826 115.595L113.828 115.598C113.952 115.788 114.073 115.974 114.197 116.153C114.323 116.332 114.451 116.504 114.586 116.667C114.72 116.83 114.86 116.983 115.004 117.125C115.077 117.195 115.149 117.263 115.222 117.325C115.258 117.358 115.295 117.387 115.33 117.416C115.348 117.429 115.367 117.444 115.383 117.455C115.397 117.466 115.421 117.483 115.42 117.481C115.627 117.624 115.68 117.91 115.537 118.118C115.395 118.327 115.111 118.379 114.903 118.236Z" fill="#000072"/>
<path d="M119.115 108.686C118.617 107.937 118.075 107.225 117.492 106.565C116.909 105.905 116.282 105.294 115.602 104.759C114.921 104.223 114.189 103.76 113.405 103.39C112.622 103.011 111.787 102.745 110.913 102.516L110.911 102.515C110.84 102.497 110.798 102.425 110.816 102.354C110.831 102.296 110.881 102.257 110.938 102.255C111.862 102.206 112.807 102.352 113.697 102.666C114.589 102.98 115.425 103.456 116.163 104.047C116.901 104.637 117.542 105.34 118.075 106.108C118.601 106.881 119.04 107.709 119.291 108.613C119.305 108.664 119.275 108.717 119.224 108.731C119.183 108.743 119.141 108.726 119.118 108.692L119.115 108.686Z" fill="#000072"/>
<path d="M89.2604 66.1889C87.4685 72.8787 89.3325 80.571 89.3325 80.571C77.3274 74.4293 77.7241 64.299 78.0017 61.9057C78.0403 61.5704 78.0776 61.3875 78.0776 61.3875C84.2871 59.8634 89.2604 66.1889 89.2604 66.1889Z" fill="#F96328"/>
<path d="M89.2665 66.1827C87.4677 72.8774 89.3257 80.5708 89.3257 80.5708C89.3257 80.5708 86.728 77.8841 86.7621 72.4193C86.7642 72.0681 86.6218 71.7302 86.3584 71.4981C85.8631 71.0601 85.0967 70.2126 85.0439 69.1236C85.024 68.7205 84.7759 68.3685 84.4 68.2247C83.6657 67.944 82.552 67.2854 81.9997 65.7904C81.8503 65.3853 81.9673 64.9292 82.2859 64.6394C82.4772 64.465 82.7217 64.2687 83.0119 64.0899C83.3377 63.8884 83.3538 63.4183 83.0433 63.1934C81.993 62.4326 79.9044 61.2185 78.0067 61.9078C78.0456 61.5727 78.0829 61.3896 78.0829 61.3896C84.2966 59.8592 89.2665 66.1827 89.2665 66.1827Z" fill="#F96328"/>
<path d="M78.0835 61.3896C78.0835 61.3896 75.6422 73.5806 89.3258 80.5703C89.3258 80.5703 87.4683 72.8779 89.2671 66.1828C89.2671 66.1828 84.2972 59.8598 78.0835 61.3896Z" fill="#F96328"/>
<path d="M88.1629 64.3148C88.1629 64.3148 85.1534 63.392 83.1613 65.5536C83.1613 65.5536 83.7924 67.5734 85.9946 67.4683C85.9946 67.4683 86.0149 71.0937 88.8346 71.15C88.8346 71.15 88.5352 67.8709 89.9239 65.2511C89.9239 65.2511 89.077 64.6384 88.1629 64.3148Z" fill="#F96328"/>
<path d="M85.9955 67.4686C85.9955 67.4686 86.0735 66.7253 86.4369 66.3138L85.9955 67.4686Z" fill="#F96328"/>
<path d="M85.5416 67.4194C85.5554 67.3437 85.5703 67.2941 85.5916 67.2347C85.6107 67.1775 85.6357 67.1228 85.6601 67.068C85.7112 66.9592 85.7731 66.8552 85.842 66.7554C85.9158 66.657 85.9922 66.5609 86.0883 66.4806C86.185 66.4009 86.303 66.3371 86.4363 66.3149L86.4347 66.6661C86.4356 66.7707 86.4303 66.8667 86.4337 66.9648C86.4344 67.0622 86.439 67.1581 86.4426 67.2528L86.4498 67.5165L85.5416 67.4194Z" fill="#F96328"/>
<path d="M88.1629 64.3148C88.1629 64.3148 85.1534 63.392 83.1613 65.5536C83.1613 65.5536 83.7924 67.5734 85.9946 67.4683C85.9946 67.4683 86.0149 71.0937 88.8346 71.15C88.8346 71.15 88.5352 67.8709 89.9239 65.2511C89.9239 65.2511 89.077 64.6384 88.1629 64.3148Z" fill="#F96328"/>
<path d="M94.2896 59.0993C91.5243 61.38 89.9193 64.6702 89.4303 65.7866C89.429 65.7915 89.4278 65.7942 89.426 65.7974C89.3282 66.0168 89.2767 66.1499 89.2692 66.1705C89.2691 66.1722 89.2679 66.1733 89.2679 66.1733C82.8668 59.5589 78.0927 61.3847 78.0927 61.3847C79.6933 59.8458 81.829 59.0359 84.0255 58.6516C89.0071 57.7776 94.2896 59.0993 94.2896 59.0993Z" fill="#F96328"/>
<path d="M94.2896 59.0958C91.5238 61.3775 89.9186 64.6691 89.4296 65.7859C89.9787 64.34 91.3459 59.2937 84.0238 58.6478C89.0063 57.7735 94.2896 59.0958 94.2896 59.0958Z" fill="#F96328"/>
<path d="M78.6517 60.8986L78.6523 60.8981C78.4593 61.0529 78.272 61.2157 78.0921 61.3882C78.0921 61.3882 82.866 59.5632 89.2669 66.1767C89.2669 66.1767 89.2681 66.1756 89.2682 66.174C89.2757 66.1528 89.3272 66.0203 89.4244 65.8009C89.4268 65.7976 89.428 65.7949 89.4293 65.79C89.5291 65.5614 89.677 65.2404 89.8717 64.8563C83.2201 58.8487 78.6517 60.8986 78.6517 60.8986Z" fill="#F96328"/>
<path d="M94.2901 59.0998C94.2901 59.0998 83.3241 56.3575 78.0932 61.3848C78.0932 61.3848 82.8679 59.5595 89.2685 66.1738C89.2685 66.1738 90.9138 61.8851 94.2901 59.0998Z" fill="#F96328"/>
<path d="M109.635 53.4501C116.417 54.8006 122.473 59.8789 122.473 59.8789C122.305 46.3737 113.064 42.2478 110.799 41.4386C110.482 41.3249 110.302 41.277 110.302 41.277C106.183 46.1824 109.635 53.4501 109.635 53.4501Z" fill="#F96328"/>
<path d="M109.636 53.4516C116.417 54.801 122.471 59.8787 122.471 59.8787C122.471 59.8787 121.22 56.3541 116.32 53.9635C116.005 53.8098 115.767 53.5323 115.675 53.193C115.504 52.5535 115.085 51.489 114.135 50.9596C113.783 50.7632 113.579 50.3839 113.617 49.9824C113.691 49.198 113.596 47.9054 112.504 46.7473C112.208 46.4329 111.748 46.3362 111.348 46.4939C111.108 46.5887 110.824 46.7218 110.535 46.9028C110.211 47.1066 109.783 46.9129 109.72 46.5338C109.505 45.2535 109.345 42.8383 110.802 41.4382C110.485 41.3248 110.305 41.2767 110.305 41.2767C106.185 46.1839 109.636 53.4516 109.636 53.4516Z" fill="#F96328"/>
<path d="M110.305 41.2773C110.305 41.2773 122.284 44.4838 122.471 59.8787C122.471 59.8787 116.418 54.8015 109.636 53.4521C109.636 53.4521 106.185 46.1844 110.305 41.2773Z" fill="#F96328"/>
<path d="M108.459 51.638C108.459 51.638 108.967 48.5236 111.783 47.6903C111.783 47.6903 113.309 49.1526 112.239 51.0858C112.239 51.0858 115.472 52.7108 114.273 55.2705C114.273 55.2705 111.473 53.5479 108.516 53.6363C108.516 53.6363 108.343 52.6035 108.459 51.638Z" fill="#F96328"/>
<path d="M112.24 51.085C112.24 51.085 111.542 50.8274 111.014 50.9706L112.24 51.085Z" fill="#F96328"/>
<path d="M112.082 51.5149L111.849 51.3916C111.766 51.3464 111.682 51.3 111.596 51.2557C111.51 51.2093 111.422 51.1715 111.329 51.1247L111.014 50.9706C111.093 50.8608 111.202 50.7829 111.316 50.7311C111.431 50.6804 111.55 50.6543 111.671 50.6316C111.79 50.6138 111.911 50.6044 112.031 50.6065C112.091 50.6086 112.151 50.6108 112.21 50.619C112.272 50.6262 112.324 50.6347 112.397 50.6557L112.082 51.5149Z" fill="#F96328"/>
<path d="M108.459 51.638C108.459 51.638 108.967 48.5236 111.783 47.6903C111.783 47.6903 113.309 49.1526 112.239 51.0858C112.239 51.0858 115.472 52.7108 114.273 55.2705C114.273 55.2705 111.473 53.5479 108.516 53.6363C108.516 53.6363 108.343 52.6035 108.459 51.638Z" fill="#F96328"/>
<path d="M101.089 54.838C104.356 53.3617 108.013 53.3774 109.229 53.4327C109.233 53.4335 109.236 53.4336 109.24 53.4338C109.48 53.443 109.621 53.4556 109.643 53.4577C109.645 53.4589 109.646 53.4584 109.646 53.4584C106.565 44.767 110.316 41.2818 110.316 41.2818C108.229 42.0389 106.557 43.6015 105.239 45.4066C102.248 49.5 101.089 54.838 101.089 54.838Z" fill="#F96328"/>
<path d="M101.089 54.8384C104.355 53.3624 108.011 53.3781 109.227 53.4334C107.69 53.2861 102.57 52.2789 105.238 45.4085C102.248 49.5013 101.089 54.8384 101.089 54.8384Z" fill="#F96328"/>
<path d="M109.628 41.5637L109.627 41.5637C109.852 41.4593 110.081 41.3624 110.316 41.2773C110.316 41.2773 106.559 44.7637 109.645 53.4576C109.645 53.4576 109.643 53.4581 109.642 53.4574C109.62 53.4548 109.478 53.4423 109.238 53.433C109.234 53.4329 109.231 53.4327 109.226 53.432C108.977 53.4206 108.623 53.4112 108.193 53.4161C105.761 44.7652 109.628 41.5637 109.628 41.5637Z" fill="#F96328"/>
<path d="M101.089 54.8385C101.089 54.8385 103.497 43.7584 110.316 41.2823C110.316 41.2823 106.564 44.7681 109.646 53.4589C109.646 53.4589 105.078 53.0366 101.089 54.8385Z" fill="#F96328"/>
<path d="M89.2604 66.1889C87.4685 72.8787 89.3325 80.571 89.3325 80.571C77.3274 74.4293 77.7241 64.299 78.0017 61.9057C78.0403 61.5704 78.0776 61.3875 78.0776 61.3875C84.2871 59.8634 89.2604 66.1889 89.2604 66.1889Z" fill="#FFB3D2"/>
<g opacity="0.3">
<path d="M89.2679 66.1851C87.4703 72.8781 89.3311 80.5709 89.3311 80.5709C89.3311 80.5709 86.7316 77.8839 86.7642 72.42C86.7663 72.0688 86.6237 71.731 86.3602 71.4988C85.8646 71.0607 85.0977 70.2131 85.0446 69.1244C85.0246 68.7213 84.7762 68.3693 84.4002 68.2254C83.6655 67.9446 82.5511 67.2857 81.9982 65.7908C81.8487 65.3857 81.9656 64.9297 82.2843 64.6401C82.4756 64.4658 82.7202 64.2695 83.0104 64.0909C83.3363 63.8895 83.3523 63.4195 83.0416 63.1946C81.9907 62.4335 79.901 61.219 78.0028 61.9077C78.0416 61.5726 78.0788 61.3896 78.0788 61.3896C84.2945 59.8612 89.2679 66.1851 89.2679 66.1851Z" fill="#000072"/>
</g>
<path d="M78.4866 61.7688C78.3734 62.6062 78.1465 65.1766 79.025 68.278C80.3823 73.0686 83.6281 76.9105 88.6779 79.7076C88.2463 77.4441 87.3988 71.6378 88.7652 66.2956C87.9381 65.3347 83.6431 60.7098 78.4866 61.7688ZM89.5667 80.9601C89.4323 81.0442 89.2627 81.0525 89.1192 80.979C81.9027 77.2929 79.162 72.149 78.1339 68.4826C77.0164 64.5006 77.6099 61.428 77.636 61.2991C77.6706 61.1248 77.8029 60.987 77.974 60.945C80.6449 60.2875 83.5111 60.9411 86.2636 62.8355C88.3164 64.2482 89.5727 65.8333 89.6255 65.8999C89.7148 66.014 89.7458 66.1631 89.7082 66.3031C87.9616 72.803 89.751 80.3876 89.7697 80.4637C89.8112 80.6376 89.7487 80.8195 89.6087 80.9305C89.595 80.9415 89.5814 80.9513 89.5667 80.9601Z" fill="#000072"/>
<path d="M88.1629 64.3148C88.1629 64.3148 85.1534 63.392 83.1613 65.5536C83.1613 65.5536 83.7924 67.5734 85.9946 67.4683C85.9946 67.4683 86.0149 71.0937 88.8346 71.15C88.8346 71.15 88.5352 67.8709 89.9239 65.2511C89.9239 65.2511 89.077 64.6384 88.1629 64.3148Z" fill="#FA9B27"/>
<path d="M85.5416 67.4194C85.5554 67.3437 85.5703 67.2941 85.5916 67.2347C85.6107 67.1775 85.6357 67.1228 85.6601 67.068C85.7112 66.9592 85.7731 66.8552 85.842 66.7554C85.9158 66.657 85.9922 66.5609 86.0883 66.4806C86.185 66.4009 86.303 66.3371 86.4363 66.3149L86.4347 66.6661C86.4356 66.7707 86.4303 66.8667 86.4337 66.9648C86.4344 67.0622 86.439 67.1581 86.4426 67.2528L86.4498 67.5165L85.5416 67.4194Z" fill="#000072"/>
<path d="M83.6996 65.6599C83.9274 66.1238 84.5692 67.0772 85.9722 67.0105C86.097 67.0045 86.218 67.0498 86.3085 67.1358C86.399 67.2218 86.4505 67.3414 86.4511 67.4659C86.4525 67.5854 86.4987 70.2019 88.3529 70.6325C88.3299 69.6176 88.4069 67.4016 89.335 65.409C89.026 65.2146 88.5323 64.9317 88.0227 64.7503C87.8295 64.694 85.4264 64.0344 83.6996 65.6599ZM89.0756 71.5392C89.0019 71.5851 88.9154 71.6094 88.8262 71.6075C86.4984 71.5609 85.7022 69.3809 85.5621 67.9199C83.8425 67.7892 82.961 66.4416 82.726 65.6897C82.6771 65.5332 82.7155 65.3624 82.8266 65.2419C84.9871 62.8972 88.1624 63.8352 88.2962 63.8762C88.3022 63.8781 88.3082 63.88 88.3141 63.8825C89.2798 64.224 90.1541 64.8528 90.191 64.8793C90.3764 65.0139 90.4343 65.2643 90.3274 65.4668C89.0215 67.9295 89.2865 71.0776 89.2895 71.1087C89.3009 71.2386 89.2573 71.3672 89.1688 71.4622C89.141 71.4924 89.1096 71.5181 89.0756 71.5392Z" fill="#000072"/>
<path d="M94.2896 59.0993C91.5243 61.38 89.9193 64.6702 89.4303 65.7866C89.429 65.7915 89.4278 65.7942 89.426 65.7974C89.3282 66.0168 89.2767 66.1499 89.2692 66.1705C89.2691 66.1722 89.2679 66.1733 89.2679 66.1733C82.8668 59.5589 78.0927 61.3847 78.0927 61.3847C79.6933 59.8458 81.829 59.0359 84.0255 58.6516C89.0071 57.7776 94.2896 59.0993 94.2896 59.0993Z" fill="#FA9B27"/>
<g opacity="0.3">
<path d="M94.2898 59.0984C91.5242 61.3785 89.9196 64.6685 89.4307 65.7847C89.9796 64.3396 91.3456 59.2954 84.0221 58.6477C89.0052 57.7751 94.2898 59.0984 94.2898 59.0984Z" fill="#000072"/>
</g>
<g opacity="0.5">
<path d="M78.6514 60.8986L78.652 60.898C78.4591 61.0527 78.2718 61.2154 78.0918 61.3878C78.0918 61.3878 82.8658 59.5649 89.2689 66.1766C89.2689 66.1766 89.2701 66.1756 89.2701 66.1739C89.2777 66.1527 89.3292 66.0203 89.4263 65.801C89.4286 65.7978 89.4299 65.7951 89.4312 65.7902C89.5309 65.5617 89.6788 65.2409 89.8734 64.8571C83.2198 58.8508 78.6514 60.8986 78.6514 60.8986Z" fill="white"/>
</g>
<path d="M79.7274 60.689C81.6807 60.675 85.0656 61.3932 89.1147 65.3706C89.6626 64.1657 91.0376 61.4988 93.3053 59.36C90.9074 58.9039 84.1267 57.949 79.7693 60.6627C79.7552 60.6715 79.741 60.6802 79.7274 60.689ZM89.5094 66.5631C89.4641 66.5915 89.4136 66.6118 89.3603 66.6227C89.2074 66.6539 89.0497 66.6047 88.9411 66.4925C85.751 63.1958 83.0086 62.1006 81.2701 61.7629C79.4032 61.4 78.2652 61.8093 78.2539 61.8137C78.0507 61.8885 77.8221 61.8112 77.7072 61.6269C77.5924 61.4432 77.621 61.204 77.7769 61.0542C80.0044 58.913 83.595 57.8226 88.16 57.8991C91.5687 57.9567 94.2861 58.6269 94.4 58.6558C94.5674 58.6971 94.6971 58.8302 94.7349 58.9994C94.7733 59.168 94.7132 59.3438 94.5801 59.4533C91.3345 62.1314 89.7106 66.297 89.6944 66.3388C89.6584 66.4334 89.5927 66.5116 89.5094 66.5631Z" fill="#000072"/>
<path d="M109.635 53.4501C116.417 54.8006 122.473 59.8789 122.473 59.8789C122.305 46.3737 113.064 42.2478 110.799 41.4386C110.482 41.3249 110.302 41.277 110.302 41.277C106.183 46.1824 109.635 53.4501 109.635 53.4501Z" fill="#FFB3D2"/>
<g opacity="0.3">
<path d="M109.635 53.4493C116.418 54.8004 122.476 59.8788 122.476 59.8788C122.476 59.8788 121.224 56.3546 116.321 53.9631C116.006 53.8093 115.768 53.5318 115.676 53.1925C115.504 52.5531 115.085 51.4887 114.135 50.9592C113.783 50.7628 113.578 50.3834 113.616 49.982C113.69 49.1979 113.594 47.9055 112.502 46.7473C112.206 46.4329 111.746 46.3361 111.346 46.4937C111.106 46.5883 110.821 46.7213 110.533 46.9022C110.208 47.1058 109.781 46.9121 109.717 46.5331C109.502 45.253 109.341 42.8383 110.798 41.4389C110.481 41.3254 110.3 41.2773 110.3 41.2773C106.18 46.1822 109.635 53.4493 109.635 53.4493Z" fill="#000072"/>
</g>
<path d="M109.958 53.0502C115.339 54.1888 120.154 57.5231 121.987 58.9135C121.723 53.1355 119.727 48.5167 116.045 45.1742C113.662 43.0109 111.264 42.0766 110.464 41.8068C107.234 45.9717 109.466 51.8806 109.958 53.0502ZM122.712 60.2674C122.698 60.2761 122.683 60.2849 122.667 60.2919C122.506 60.3687 122.316 60.3439 122.179 60.2293C122.119 60.1796 116.132 55.2111 109.547 53.9011C109.406 53.8725 109.286 53.7791 109.224 53.648C109.187 53.5716 108.327 51.7398 107.973 49.2688C107.499 45.956 108.185 43.0904 109.955 40.9816C110.069 40.8463 110.25 40.7887 110.421 40.8341C110.548 40.868 113.558 41.6963 116.623 44.4643C119.444 47.0126 122.829 51.7548 122.928 59.8734C122.93 60.0345 122.847 60.1834 122.712 60.2674Z" fill="#000072"/>
<path d="M108.459 51.638C108.459 51.638 108.967 48.5236 111.783 47.6903C111.783 47.6903 113.309 49.1526 112.239 51.0858C112.239 51.0858 115.472 52.7108 114.273 55.2705C114.273 55.2705 111.473 53.5479 108.516 53.6363C108.516 53.6363 108.343 52.6035 108.459 51.638Z" fill="#FA9B27"/>
<path d="M112.082 51.5149L111.849 51.3916C111.766 51.3464 111.682 51.3 111.596 51.2557C111.51 51.2093 111.422 51.1715 111.329 51.1247L111.014 50.9706C111.093 50.8608 111.202 50.7829 111.316 50.7311C111.431 50.6804 111.55 50.6543 111.671 50.6316C111.79 50.6138 111.911 50.6044 112.031 50.6065C112.091 50.6086 112.151 50.6108 112.21 50.619C112.272 50.6262 112.324 50.6347 112.397 50.6557L112.082 51.5149Z" fill="#000072"/>
<path d="M108.918 53.1767C111.112 53.225 113.127 54.138 114.024 54.608C114.46 52.75 112.142 51.5493 112.035 51.4953C111.924 51.4388 111.84 51.3393 111.803 51.2203C111.767 51.1014 111.78 50.972 111.84 50.863C112.528 49.6199 111.958 48.6276 111.642 48.2205C109.421 49.0521 108.946 51.5063 108.911 51.7044C108.847 52.2431 108.881 52.8127 108.918 53.1767ZM114.514 55.6597C114.48 55.6814 114.443 55.698 114.404 55.7095C114.28 55.747 114.145 55.7292 114.035 55.6612C114.008 55.6444 111.311 54.0112 108.53 54.0944C108.302 54.1011 108.104 53.9372 108.066 53.7115C108.058 53.6663 107.883 52.6019 108.005 51.5825C108.006 51.5759 108.007 51.5699 108.008 51.5633C108.031 51.4249 108.599 48.1541 111.653 47.2508C111.81 47.2049 111.979 47.2458 112.098 47.3596C112.666 47.9037 113.48 49.2931 112.835 50.8966C114.08 51.6706 115.676 53.3523 114.686 55.4662C114.648 55.5469 114.588 55.6139 114.514 55.6597Z" fill="#000072"/>
<path d="M101.089 54.838C104.356 53.3617 108.013 53.3774 109.229 53.4327C109.233 53.4335 109.236 53.4336 109.24 53.4338C109.48 53.443 109.621 53.4556 109.643 53.4577C109.645 53.4589 109.646 53.4584 109.646 53.4584C106.565 44.767 110.316 41.2818 110.316 41.2818C108.229 42.0389 106.557 43.6015 105.239 45.4066C102.248 49.5 101.089 54.838 101.089 54.838Z" fill="#FA9B27"/>
<g opacity="0.3">
<path d="M101.089 54.8362C104.356 53.3615 108.012 53.3783 109.229 53.4339C107.692 53.2862 102.57 52.2777 105.237 45.4096C102.247 49.5006 101.089 54.8362 101.089 54.8362Z" fill="#000072"/>
</g>
<g opacity="0.5">
<path d="M109.628 41.5641L109.627 41.5641C109.852 41.4597 110.081 41.3628 110.316 41.2778C110.316 41.2778 106.558 44.7635 109.646 53.4576C109.646 53.4576 109.645 53.4581 109.643 53.4575C109.621 53.4548 109.479 53.4423 109.239 53.433C109.236 53.4328 109.232 53.4327 109.228 53.4319C108.978 53.4206 108.624 53.4111 108.194 53.4159C105.759 44.7648 109.628 41.5641 109.628 41.5641Z" fill="white"/>
</g>
<path d="M101.758 54.0678C104.678 52.9768 107.674 52.9227 108.995 52.964C107.231 47.5579 108.089 44.1946 108.968 42.4438C108.954 42.4526 108.94 42.4613 108.926 42.4701C104.565 45.1862 102.414 51.7088 101.758 54.0678ZM109.888 53.8482C109.804 53.8997 109.706 53.924 109.605 53.915C109.561 53.9108 105.105 53.5273 101.277 55.2563C101.12 55.3272 100.936 55.3033 100.801 55.1943C100.667 55.0848 100.606 54.9094 100.643 54.7401C100.667 54.6251 101.272 51.8832 102.732 48.7923C104.688 44.6513 107.256 41.9052 110.16 40.8516C110.364 40.7773 110.592 40.858 110.705 41.044C110.819 41.2306 110.785 41.4709 110.626 41.6186C110.619 41.6254 109.748 42.4676 109.245 44.3075C108.776 46.0216 108.541 48.9739 110.076 53.3058C110.129 53.4531 110.102 53.6162 110.007 53.7397C109.974 53.7835 109.933 53.8198 109.888 53.8482Z" fill="#000072"/>
<path d="M127.207 67.6883C127.845 67.8157 128.387 68.1119 128.743 68.351C129.044 68.5522 129.25 68.8718 129.3 69.2302C129.779 72.6732 126.653 76.4954 126.653 76.4954C123.327 83.6672 117.364 87.4289 116.765 87.7916C116.734 87.8112 116.717 87.8215 116.717 87.8215C116.717 87.8215 110.485 91.9127 102.176 91.6908C102.176 91.6908 97.3703 92.7913 94.5111 90.8268C94.212 90.6219 94.0196 90.2935 93.9741 89.9352C93.9205 89.5091 93.8979 88.8892 94.0681 88.261C94.0681 88.261 91.6991 87.9088 90.3133 86.7131L90.3128 86.712C90.0654 86.4972 89.9207 86.1886 89.9157 85.8616C89.9072 85.26 89.8673 84.0907 89.6833 82.6239L89.6839 82.6223C89.6452 82.323 89.603 82.0136 89.5515 81.691C89.5097 81.4236 89.4094 81.0446 89.2764 80.5702C89.1411 80.0834 88.9711 79.4966 88.797 78.8239L88.7987 78.824C88.6663 78.3097 88.532 77.7483 88.4084 77.146C87.4887 72.6731 87.1552 65.946 92.7213 60.142C93.3034 59.5341 93.949 58.9374 94.665 58.355L94.6645 58.3539C94.9885 58.091 95.3273 57.8304 95.682 57.5711C96.2024 57.1899 96.7588 56.8165 97.3481 56.4501C102.119 53.4875 106.345 52.7876 109.944 53.2305C117.199 54.1213 121.901 59.6638 123.357 60.7056C124.917 61.8185 126.273 62.5621 126.917 62.8917C127.208 63.0421 127.418 63.3093 127.499 63.6266C127.948 65.4025 127.207 67.6883 127.207 67.6883Z" fill="#FA9B27"/>
<path d="M115.03 72.5241C114.746 72.5997 114.45 72.6139 114.159 72.5747C113.501 72.4861 111.853 72.6059 108.569 74.6442C105.286 76.6824 104.445 78.1085 104.23 78.738C104.135 79.0174 103.99 79.2762 103.797 79.4974C98.7312 85.2786 102.168 91.6925 102.168 91.6925C110.475 91.9154 116.707 87.8235 116.707 87.8235C116.707 87.8235 123.137 84.0548 126.643 76.4995C126.643 76.4995 122.449 70.5555 115.03 72.5241Z" fill="white"/>
<path d="M99.0131 72.2076C98.4542 71.9584 97.6369 71.761 96.7114 72.0679C96.4603 72.1517 96.1848 72.0507 96.0545 71.8193C95.7417 71.2622 95.4017 70.2821 96.5491 69.8504C97.1016 69.6427 97.7168 69.6865 98.2542 69.9337C98.8306 70.1991 99.5462 70.6937 99.7698 71.5624C99.8867 72.0138 99.4379 72.3971 99.0131 72.2076Z" fill="white"/>
<path d="M110.677 64.9524C110.704 64.339 110.892 63.5172 111.579 62.8232C111.765 62.6347 111.798 62.3424 111.649 62.1221C111.292 61.5925 110.567 60.8498 109.67 61.6875C109.238 62.0911 109.003 62.6635 108.984 63.2562C108.964 63.8921 109.087 64.7557 109.763 65.344C110.114 65.6505 110.657 65.4184 110.677 64.9524Z" fill="white"/>
<g opacity="0.3">
<path d="M127.514 63.5493L127.514 63.5482L127.512 63.5481C127.512 63.5481 126.676 65.6076 124.608 67.3417C124.167 67.7118 124.289 68.4293 124.827 68.6357C125.089 68.7367 125.361 68.857 125.62 68.9981C126.083 69.251 126.319 69.7863 126.207 70.303C125.672 72.786 123.412 80.5331 115.368 85.5394C107.325 90.5462 99.3912 89.1436 96.9321 88.5242C96.4201 88.3952 96.046 87.9469 96.0249 87.4181C96.0134 87.1235 96.0264 86.8256 96.0523 86.5454C96.1059 85.9707 95.5176 85.5436 94.991 85.776C92.5233 86.8649 90.3101 86.7029 90.3101 86.7029L90.3094 86.7045L90.3099 86.7056C91.6967 87.9012 94.0654 88.2544 94.0654 88.2544C93.8954 88.8817 93.9181 89.5013 93.9718 89.9272C94.018 90.2853 94.2099 90.6136 94.5097 90.8191C97.369 92.7829 102.175 91.6843 102.175 91.6843C110.484 91.9084 116.717 87.821 116.717 87.821C116.717 87.821 116.733 87.8106 116.764 87.7911C116.796 87.7715 116.812 87.7612 116.812 87.7612C116.812 87.7612 123.231 83.9747 126.712 76.4122C126.712 76.4122 129.825 72.5823 129.334 69.1437C129.283 68.7837 129.075 68.4657 128.774 68.2657C128.417 68.0288 127.873 67.7336 127.236 67.6083C127.236 67.6083 127.97 65.3241 127.514 63.5493Z" fill="#000072"/>
</g>
<path d="M97.3633 56.4478C96.7735 56.8137 96.2179 57.1884 95.6958 57.5695C95.6958 57.5695 99.1234 63.0557 102.512 65.309C102.726 65.4509 103.01 65.2752 102.978 65.0193C102.477 60.974 99.1081 55.4512 99.1081 55.4512C98.535 55.7498 97.9532 56.0818 97.3633 56.4478Z" fill="#F96328"/>
<path d="M94.6877 58.3551C94.7237 58.4346 96.1445 61.5845 96.98 64.0953C97.0458 64.2941 96.8158 64.459 96.6501 64.3307C95.7472 63.6323 93.8957 62.064 92.74 60.1451C93.3228 59.537 93.9699 58.9389 94.6877 58.3551Z" fill="#F96328"/>
<path d="M100.263 54.8833C100.318 54.9515 102.492 57.6361 104.357 59.5087C104.505 59.6563 104.754 59.5229 104.713 59.3174C104.492 58.194 103.919 55.8289 102.723 53.9331C101.922 54.1854 101.102 54.4991 100.263 54.8833Z" fill="#F96328"/>
<path d="M92.8193 79.5126C90.1377 81.5609 89.7033 82.6097 89.6892 82.6422C89.651 82.3435 89.6078 82.0323 89.5568 81.7109C89.5145 81.4435 89.4141 81.0645 89.2811 80.59C90.5048 79.4383 92.0252 79.2707 92.7349 79.2615C92.869 79.2599 92.926 79.4311 92.8193 79.5126Z" fill="#F96328"/>
<path d="M90.9126 77.6128C89.5651 77.9643 88.8377 78.8055 88.8085 78.8412C88.6758 78.3282 88.5404 77.7671 88.4164 77.1637C89.7552 76.8269 90.5714 77.1336 90.9513 77.3584C91.0581 77.4219 91.0327 77.5817 90.9126 77.6128Z" fill="#F96328"/>
<path d="M119.94 62.635C122.963 61.1421 124.093 61.2194 124.128 61.221C123.878 61.0537 123.62 60.8761 123.356 60.6872C123.136 60.5302 122.843 60.2713 122.479 59.9407C120.905 60.5254 120.077 61.8147 119.753 62.4474C119.692 62.5668 119.82 62.6943 119.94 62.635Z" fill="#F96328"/>
<path d="M119.098 60.0743C120.013 59.0218 121.09 58.7453 121.134 58.7349C120.735 58.3858 120.293 58.015 119.809 57.6338C118.913 58.6849 118.822 59.5545 118.854 59.9957C118.862 60.1197 119.017 60.1677 119.098 60.0743Z" fill="#F96328"/>
<path d="M127.082 68.1248C127.011 68.1083 126.911 68.0778 126.823 68.0494L126.544 67.9544C126.449 67.9186 126.354 67.8916 126.253 67.8505C126.153 67.8101 126.049 67.7611 125.928 67.6915C126.008 67.5796 126.108 67.4962 126.213 67.4373C126.318 67.3769 126.429 67.3388 126.54 67.3029C126.652 67.2704 126.766 67.2446 126.88 67.2287C126.997 67.2158 127.103 67.2062 127.236 67.2222L127.082 68.1248Z" fill="#000072"/>
<path d="M126.197 76.3681L126.443 75.6583C126.525 75.4196 126.604 75.1792 126.681 74.9381C126.758 74.697 126.83 74.454 126.898 74.2097C126.966 73.9643 127.037 73.7202 127.099 73.4624C127.181 73.7162 127.215 73.9822 127.231 74.2453C127.247 74.5089 127.242 74.7714 127.235 75.034C127.226 75.2964 127.207 75.5573 127.182 75.8173C127.158 76.0797 127.126 76.335 127.082 76.6002L126.197 76.3681Z" fill="#000072"/>
<path d="M93.6491 88.1152C93.6943 87.9895 93.7496 87.8985 93.8135 87.7991C93.8783 87.703 93.9523 87.6128 94.0311 87.5268C94.113 87.4426 94.1966 87.3606 94.2971 87.2927C94.3966 87.2248 94.5157 87.1726 94.6518 87.15C94.66 87.2903 94.6571 87.4053 94.6485 87.5133C94.6405 87.6219 94.6219 87.7195 94.6119 87.8209L94.5721 88.1133C94.5581 88.2056 94.5409 88.3088 94.5235 88.38L93.6491 88.1152Z" fill="#000072"/>
<path d="M102.073 92.1576C101.817 92.0792 101.575 91.9942 101.331 91.8986C101.088 91.8046 100.847 91.7059 100.609 91.5962C100.372 91.486 100.135 91.3741 99.9073 91.2422C99.6805 91.1104 99.4579 90.9616 99.2682 90.7756C99.5257 90.8343 99.7755 90.8793 100.024 90.9276C100.272 90.9758 100.521 91.0197 100.77 91.0581C101.019 91.0965 101.269 91.1326 101.518 91.166L102.261 91.2621L102.073 92.1576Z" fill="#000072"/>
<path d="M97.4548 78.9548C97.4297 78.7729 97.4253 78.6085 97.4356 78.4359C97.4415 78.2642 97.4703 78.0957 97.5009 77.9252C97.5703 77.5861 97.6944 77.2539 97.8641 76.9403C98.0322 76.6245 98.2602 76.3374 98.5214 76.085C98.5885 76.0239 98.6557 75.9622 98.725 75.9024C98.7922 75.8407 98.8708 75.7945 98.9437 75.7403C99.0187 75.6896 99.0906 75.6315 99.1702 75.5886L99.4084 75.4596C99.7275 75.2938 100.049 75.1796 100.397 75.087C100.746 75.01 101.108 74.9546 101.48 74.9842C101.849 75.006 102.222 75.0904 102.56 75.2534C102.729 75.3358 102.891 75.4305 103.036 75.5499C103.11 75.608 103.179 75.6714 103.246 75.7386C103.278 75.7732 103.31 75.8073 103.342 75.8458C103.357 75.8653 103.372 75.882 103.389 75.9037L103.44 75.9741C103.562 76.1112 103.55 76.3214 103.414 76.4435C103.278 76.5655 103.068 76.5532 102.946 76.4167C102.943 76.4193 102.926 76.4091 102.914 76.4036L102.874 76.3824C102.847 76.3679 102.816 76.3549 102.787 76.3414C102.729 76.3133 102.668 76.2873 102.606 76.2657C102.575 76.2555 102.545 76.2447 102.515 76.2328L102.421 76.2053C102.361 76.1843 102.296 76.1736 102.234 76.1587C101.982 76.1052 101.726 76.0913 101.469 76.1068C101.213 76.1172 100.952 76.1739 100.692 76.2395L100.496 76.2992C100.431 76.3172 100.366 76.3386 100.301 76.3655C100.174 76.4167 100.034 76.459 99.9193 76.519C99.4342 76.7369 99.0002 77.0451 98.6484 77.4681C98.4701 77.6773 98.3094 77.9105 98.1683 78.164C98.0262 78.4146 97.9069 78.6978 97.8063 78.9714L97.7987 78.9926C97.7649 79.0851 97.6626 79.1324 97.5698 79.0983C97.5058 79.0744 97.4636 79.0183 97.4548 78.9548Z" fill="#000072"/>
<path d="M117.215 66.8618C116.926 66.831 116.62 66.8126 116.333 66.8294C116.044 66.8439 115.764 66.8849 115.498 66.9524C114.964 67.0813 114.496 67.3354 114.086 67.6746C113.981 67.7511 113.882 67.8583 113.779 67.9499C113.726 67.9967 113.679 68.0454 113.634 68.0965L113.494 68.2455C113.32 68.45 113.153 68.6592 113.031 68.8853C112.903 69.1096 112.802 69.3456 112.738 69.5954C112.724 69.6578 112.705 69.7211 112.697 69.7849L112.68 69.8814C112.677 69.9134 112.673 69.9458 112.669 69.9782C112.66 70.0437 112.657 70.1093 112.657 70.174C112.655 70.2066 112.654 70.2397 112.655 70.2707L112.656 70.3167C112.656 70.3294 112.657 70.3493 112.653 70.3508C112.722 70.521 112.639 70.7146 112.47 70.7833C112.3 70.8513 112.107 70.769 112.039 70.5983L111.999 70.5207C111.986 70.4964 111.978 70.4761 111.967 70.4529C111.947 70.4083 111.93 70.3639 111.914 70.3194C111.883 70.2295 111.858 70.1393 111.838 70.0472C111.796 69.8639 111.783 69.6764 111.784 69.4884C111.788 69.1114 111.878 68.7389 112.022 68.3976C112.16 68.0499 112.37 67.7492 112.594 67.469C112.831 67.1983 113.076 66.9595 113.365 66.7459L113.586 66.5889C113.659 66.5364 113.743 66.4971 113.822 66.452C113.903 66.4109 113.979 66.3607 114.064 66.3275C114.148 66.2915 114.233 66.2589 114.317 66.2251C114.659 66.1029 115.017 66.0247 115.373 66.0138C115.729 66.0001 116.081 66.0354 116.414 66.1236C116.581 66.1716 116.744 66.2205 116.901 66.2912C117.06 66.3581 117.205 66.4355 117.356 66.5381C117.438 66.5938 117.459 66.7053 117.404 66.7869C117.366 66.8432 117.301 66.8707 117.238 66.8645L117.215 66.8618Z" fill="#000072"/>
<g opacity="0.5">
<path d="M122.963 60.3904L122.916 60.4468C120.608 58.4992 116.342 55.1574 110.707 54.4641C107.109 54.0203 102.882 54.7193 98.1107 57.6787C97.522 58.0449 96.9656 58.4185 96.4447 58.7988C96.09 59.0579 95.7518 59.3183 95.4278 59.581L95.4283 59.5822C94.7118 60.1641 94.0663 60.7604 93.4843 61.3679C87.9195 67.168 88.2544 73.893 89.176 78.3639C89.2993 78.966 89.4342 79.5272 89.5668 80.0419L89.5652 80.0413C89.72 80.6399 89.4879 81.0848 89.5292 81.5184C89.4778 81.2667 89.3914 80.9449 89.2836 80.5596C89.1482 80.0725 88.9785 79.4865 88.8037 78.8134L88.8053 78.814C88.6728 78.2999 88.5384 77.7387 88.4146 77.136C87.4935 72.6652 87.158 65.9407 92.7234 60.1401C93.3054 59.5326 93.9509 58.9369 94.6669 58.3543L94.6664 58.3537C94.9909 58.0911 95.3291 57.8307 95.6837 57.5716C96.2041 57.1907 96.7606 56.8176 97.3498 56.4509C102.12 53.4914 106.348 52.7925 109.947 53.2368C116.636 54.0591 121.156 58.8339 122.963 60.3904Z" fill="white"/>
</g>
<path d="M116.476 87.4322C116.479 87.4302 116.483 87.4281 116.486 87.4261C116.552 87.3876 122.84 83.6323 126.24 76.3013C126.257 76.2667 126.277 76.2338 126.301 76.204C126.331 76.1677 129.293 72.4941 128.848 69.2932C128.817 69.0667 128.687 68.8628 128.491 68.7317C128.18 68.5239 127.689 68.2516 127.118 68.1366C126.99 68.1109 126.879 68.0317 126.813 67.9187C126.747 67.8056 126.733 67.6695 126.773 67.5452C126.781 67.5234 127.468 65.3629 127.055 63.7397C127.007 63.5489 126.881 63.3889 126.709 63.3009C126.034 62.9533 124.667 62.2026 123.092 61.0779C122.805 60.8724 122.422 60.5242 121.936 60.0824C118.653 57.0998 109.934 49.1773 97.5895 56.8404C97.5771 56.8482 97.5646 56.8559 97.5527 56.8631C85.2511 64.5265 88.4307 75.8661 89.6287 80.1382C89.8061 80.7712 89.9463 81.2709 90.0016 81.6202C90.3038 83.5354 90.3641 85.0972 90.3733 85.8575C90.3754 86.0506 90.4621 86.236 90.6108 86.3644C91.8801 87.4624 94.1112 87.8039 94.1337 87.8077C94.2624 87.8268 94.3777 87.9001 94.4489 88.0101C94.5208 88.1195 94.5419 88.2543 94.5082 88.3811C94.3563 88.9444 94.3803 89.5069 94.4269 89.879C94.4564 90.112 94.5812 90.3201 94.769 90.4492C97.4275 92.2763 102.028 91.255 102.074 91.2443C102.111 91.2355 102.149 91.2317 102.187 91.2329C110.247 91.449 116.405 87.4793 116.467 87.4379C116.47 87.4358 116.473 87.4343 116.476 87.4322ZM117.116 88.1145C117.038 88.1635 116.984 88.1953 116.958 88.2113C116.582 88.4536 110.463 92.3526 102.22 92.1503C101.63 92.2772 97.106 93.1643 94.2538 91.2045C93.8503 90.9279 93.5835 90.486 93.5213 89.9926C93.477 89.6428 93.4504 89.1537 93.5276 88.6241C92.7304 88.4518 91.1096 88.0042 90.0156 87.058C89.6682 86.7574 89.4656 86.3234 89.4601 85.8674C89.4515 85.1315 89.3929 83.6201 89.0998 81.7623C89.0532 81.4659 88.9191 80.9892 88.7498 80.3853C87.5013 75.9323 84.1879 64.1099 97.0697 56.0851C97.0827 56.0768 97.0946 56.0696 97.1082 56.0614C110.036 48.0354 119.126 56.2945 122.548 59.404C123.012 59.8249 123.378 60.1579 123.621 60.3316C125.149 61.4231 126.472 62.1497 127.125 62.4852C127.53 62.6939 127.827 63.0691 127.94 63.5145C128.297 64.9189 127.974 66.5733 127.772 67.365C128.279 67.5318 128.704 67.774 128.997 67.9693C129.409 68.2453 129.685 68.682 129.752 69.1679C130.23 72.6008 127.421 76.266 127.044 76.74C123.79 83.7142 118.181 87.4512 117.116 88.1145Z" fill="#000072"/>
<g opacity="0.3">
<path d="M114.582 73.281C113.423 77.9562 110.406 75.1158 110.406 75.1158L109.23 75.8537L108.054 76.5916C108.054 76.5916 109.287 80.5513 104.583 79.5544C104.583 79.5544 104.468 81.8894 106.759 82.5759C106.759 82.5759 109.679 85.4075 113.645 82.919C117.612 80.4306 116.345 76.5617 116.345 76.5617C116.729 74.1969 114.582 73.281 114.582 73.281Z" fill="#000072"/>
</g>
<path d="M108.261 74.2937C108.261 74.2937 107.231 74.9254 106.626 75.6633C106.366 75.9816 106.417 76.4518 106.736 76.7135C107.311 77.1859 108.396 77.7186 109.835 76.8146C111.274 75.9111 111.27 74.6999 111.098 73.9742C111.002 73.5733 110.603 73.3212 110.203 73.4175C109.277 73.6409 108.261 74.2937 108.261 74.2937Z" fill="#000072"/>
<path d="M109.915 76.0307L109.991 76.1193L110.081 76.2169C110.143 76.2811 110.207 76.3443 110.272 76.4058C110.402 76.5295 110.542 76.6415 110.684 76.7458C110.968 76.9523 111.275 77.1095 111.588 77.2022C112.215 77.3883 112.876 77.2846 113.495 76.9406C113.571 76.8976 113.649 76.8569 113.723 76.8061C113.798 76.7586 113.872 76.71 113.94 76.6561C114.085 76.5566 114.209 76.4422 114.327 76.3254C114.438 76.2043 114.536 76.0772 114.616 75.9409C114.692 75.8039 114.746 75.6593 114.786 75.5085C114.949 74.9054 114.777 74.1527 114.488 73.4174L114.484 73.4061C114.455 73.3335 114.491 73.2516 114.563 73.2228C114.609 73.2045 114.66 73.2134 114.698 73.2411C114.882 73.3778 115.028 73.5343 115.166 73.7092C115.302 73.8835 115.42 74.0758 115.515 74.2841C115.705 74.6981 115.8 75.1929 115.723 75.6888C115.687 75.9359 115.606 76.1773 115.499 76.4019C115.389 76.6247 115.25 76.8274 115.097 77.0135C114.94 77.1921 114.773 77.3615 114.593 77.5031C114.503 77.577 114.41 77.6425 114.316 77.7062C114.225 77.7728 114.126 77.8303 114.029 77.8889C113.833 78.0061 113.621 78.1048 113.404 78.1928C113.181 78.2728 112.951 78.3414 112.71 78.3742C112.233 78.4509 111.726 78.4135 111.268 78.2654C111.038 78.1925 110.819 78.0974 110.612 77.9851C110.406 77.8707 110.215 77.7382 110.036 77.5951C109.856 77.452 109.692 77.2941 109.539 77.1279C109.463 77.0448 109.39 76.9585 109.32 76.8685C109.285 76.8233 109.251 76.778 109.217 76.7306C109.182 76.6809 109.154 76.6415 109.112 76.5754C108.967 76.3498 109.031 76.0492 109.256 75.904C109.462 75.7712 109.73 75.8144 109.885 75.9956L109.915 76.0307Z" fill="#000072"/>
<path d="M109.936 76.0661C109.976 76.1332 110 76.1752 110.029 76.2291C110.056 76.2801 110.082 76.3311 110.108 76.382C110.158 76.4838 110.203 76.5877 110.244 76.693C110.327 76.9041 110.397 77.1208 110.446 77.3454C110.497 77.5695 110.532 77.7995 110.545 78.0352C110.556 78.2707 110.545 78.5103 110.51 78.7493C110.443 79.2279 110.255 79.7011 109.978 80.0983C109.844 80.3013 109.682 80.4781 109.513 80.6447C109.339 80.8027 109.157 80.9504 108.967 81.0756C108.871 81.1381 108.777 81.2024 108.677 81.256C108.579 81.3129 108.48 81.3676 108.374 81.4159C108.169 81.5171 107.944 81.5937 107.714 81.658C107.481 81.7148 107.238 81.7508 106.99 81.7534C106.742 81.7515 106.491 81.719 106.253 81.6441C105.774 81.4967 105.371 81.1952 105.083 80.8425C104.937 80.6661 104.817 80.4759 104.719 80.2768C104.623 80.0761 104.546 79.8751 104.504 79.6497C104.489 79.5733 104.539 79.4998 104.616 79.4851C104.665 79.4762 104.713 79.4939 104.745 79.5286L104.754 79.5372C105.287 80.1201 105.888 80.6026 106.5 80.7195C106.653 80.7497 106.806 80.7633 106.963 80.7549C107.119 80.7427 107.277 80.71 107.434 80.6624C107.59 80.6065 107.747 80.545 107.9 80.4579C107.977 80.42 108.053 80.3742 108.129 80.3267C108.207 80.2827 108.277 80.2301 108.349 80.1797C108.928 79.7713 109.31 79.2207 109.417 78.574C109.47 78.2512 109.463 77.9057 109.402 77.5584C109.37 77.3849 109.331 77.2101 109.277 77.0389C109.249 76.953 109.221 76.8677 109.19 76.7839L109.142 76.66L109.096 76.5528L109.078 76.5111C108.971 76.2645 109.084 75.9787 109.329 75.8721C109.554 75.775 109.812 75.8619 109.936 76.0661Z" fill="#000072"/>
<path d="M114.94 76.3766C114.94 76.3766 115.527 77.631 115.435 79.1117C115.363 80.2659 114.879 81.5584 113.379 82.4995C111.88 83.4411 110.509 83.3135 109.443 82.874C108.074 82.3113 107.205 81.2332 107.205 81.2332C107.205 81.2332 111.172 80.4376 109.582 76.4178C112.494 79.6078 114.94 76.3766 114.94 76.3766Z" fill="#000072"/>
<path d="M115.433 79.1122C115.361 80.2662 114.877 81.5586 113.378 82.4996C111.879 83.4411 110.508 83.3135 109.441 82.8741C109.441 82.8741 110.383 78.1548 115.433 79.1122Z" fill="#FF4A8B"/>
<path d="M108.095 81.4512C108.973 82.2378 110.88 83.4825 113.106 82.0961C113.112 82.093 113.117 82.0899 113.122 82.0868C115.364 80.6785 115.075 78.409 114.748 77.2732C114.238 77.7206 113.415 78.2622 112.387 78.3089C111.714 78.3391 111.057 78.1572 110.423 77.7656C110.497 78.5089 110.374 79.1807 110.053 79.7739C109.563 80.6801 108.719 81.186 108.095 81.4512ZM113.619 82.924C109.886 85.2496 106.858 81.5764 106.828 81.5391C106.721 81.4065 106.691 81.2276 106.749 81.0676C106.806 80.9071 106.943 80.7889 107.11 80.7555C107.123 80.7528 108.594 80.437 109.203 79.3033C109.584 78.5929 109.56 77.6826 109.131 76.5974C109.044 76.3789 109.125 76.1299 109.324 76.0051L109.325 76.004C109.523 75.8809 109.781 75.9164 109.939 76.0895C110.725 76.9509 111.532 77.3702 112.335 77.3366C113.619 77.2821 114.544 76.0926 114.553 76.0809C114.656 75.9462 114.823 75.8746 114.99 75.8933C115.159 75.9121 115.306 76.0166 115.378 76.1703C115.399 76.2139 117.378 80.5633 113.637 82.9122C113.631 82.9163 113.624 82.9204 113.619 82.924Z" fill="#000072"/>
<g opacity="0.3">
<path d="M108.858 75.022C108.956 75.1583 108.749 75.4764 108.396 75.7318C108.043 75.9878 107.677 76.0847 107.579 75.9483C107.482 75.8124 107.688 75.4939 108.041 75.2384C108.394 74.9822 108.759 74.886 108.858 75.022Z" fill="white"/>
</g>
<path d="M115.784 98.5158C112.254 103.701 108.809 100.22 108.809 100.22C108.809 100.22 108.499 100.327 108.034 100.496C107.394 100.729 106.46 101.082 105.648 101.443C104.25 102.065 101.98 102.482 99.7057 98.9701C97.4296 95.4592 99.4745 92.0137 99.4745 92.0137C99.4745 92.0137 99.4761 92.0144 99.4794 92.014C100.61 92.0328 101.832 91.7224 101.832 91.7224L103.974 91.6987C103.882 92.2069 103.855 92.8431 103.85 93.3426C103.845 93.7868 103.858 94.1224 103.859 94.1617L103.859 94.1666C104.23 93.9159 104.613 93.6929 105.002 93.4939C105.223 93.3807 105.447 93.277 105.673 93.1811C106.311 92.9088 106.964 92.7024 107.616 92.5552C108.027 92.4617 108.439 92.3925 108.848 92.3453C113.901 91.7657 118.429 94.6283 115.784 98.5158Z" fill="#FA9B27"/>
<path d="M115.78 98.5084C112.243 103.703 108.803 100.224 108.803 100.224C108.803 100.224 108.493 100.331 108.028 100.5C105.374 96.5416 106.883 93.9206 108.852 92.3417C113.906 91.755 118.43 94.6138 115.78 98.5084Z" fill="white"/>
<path d="M107.619 92.5516C107.212 93.1019 106.63 94.0397 105.929 95.5939C105.872 95.7161 105.693 95.6983 105.665 95.5675C105.559 95.0761 105.44 94.1742 105.675 93.1768C106.314 92.9052 106.966 92.6986 107.619 92.5516Z" fill="#F96328"/>
<path d="M105.005 93.4923C104.723 93.9182 104.362 94.5492 103.946 95.4697C103.905 95.5602 103.771 95.5481 103.75 95.4497C103.66 95.0308 103.557 94.2101 103.852 93.341C103.847 93.8155 103.862 94.1658 103.862 94.1658C104.233 93.9148 104.616 93.6916 105.005 93.4923Z" fill="#F96328"/>
<g opacity="0.3">
<path d="M115.396 96.902C112.446 101.232 109.555 99.5118 108.685 98.8308C108.51 98.6936 108.279 98.6532 108.069 98.727C107.951 98.7692 107.809 98.8201 107.647 98.8785C107.007 99.111 106.073 99.4633 105.262 99.8239C103.863 100.445 101.594 100.862 99.3186 97.3521C99.0392 96.9218 98.8259 96.4929 98.6651 96.0713C98.76 96.9803 99.0574 97.9721 99.7045 98.9693C101.98 102.479 104.249 102.062 105.648 101.441C106.459 101.08 107.393 100.728 108.033 100.496C108.498 100.327 108.809 100.221 108.809 100.221C108.809 100.221 112.254 103.699 115.783 98.5192C116.729 97.1291 116.757 95.8706 116.17 94.8535C116.133 95.4903 115.889 96.1784 115.396 96.902Z" fill="#000072"/>
</g>
<g opacity="0.3">
<path d="M103.979 91.6995C103.887 92.2078 103.861 92.8439 103.855 93.3428C103.85 93.7876 103.864 94.1232 103.865 94.1626L103.865 94.1675L102.031 95.2385C102.44 92.5783 99.6099 92.0365 99.4825 92.0135C100.614 92.0326 101.837 91.7226 101.837 91.7226L103.979 91.6995Z" fill="#000072"/>
</g>
<path d="M99.7492 92.471C99.3651 93.2546 98.2924 95.9512 100.087 98.7217C102.203 101.988 104.169 101.6 105.463 101.024C106.865 100.4 108.589 99.8124 108.662 99.7876C108.827 99.7315 109.009 99.7746 109.132 99.8985C109.143 99.9089 110.296 101.04 111.854 100.893C113.101 100.775 114.296 99.8884 115.406 98.2572C116.381 96.8249 116.34 95.5051 115.288 94.4417C113.204 92.337 107.985 91.9333 104.115 94.5463C103.975 94.64 103.801 94.6498 103.654 94.5751C103.506 94.5004 103.411 94.3512 103.403 94.1856C103.401 94.1341 103.358 93.1011 103.451 92.1622L101.89 92.1797C101.654 92.2359 100.713 92.4474 99.7492 92.471ZM113.844 101.139C113.228 101.523 112.589 101.746 111.928 101.806C110.373 101.947 109.181 101.132 108.706 100.742C108.175 100.929 106.891 101.391 105.834 101.861C103.361 102.961 101.171 102.073 99.3222 99.2198C96.9197 95.5117 98.9925 91.9303 99.0818 91.7795C99.1656 91.6391 99.3176 91.5536 99.4811 91.5567C100.537 91.5743 101.708 91.2814 101.719 91.2786C101.754 91.2697 101.791 91.2647 101.826 91.2647L103.968 91.2404C104.104 91.2389 104.234 91.2984 104.322 91.403C104.411 91.5077 104.447 91.6464 104.423 91.7808C104.336 92.26 104.31 92.8697 104.305 93.3504C106.15 92.296 108.311 91.7552 110.479 91.8178C112.766 91.8837 114.754 92.6048 115.934 93.7967C117.296 95.1715 117.378 96.9857 116.16 98.7746C115.435 99.8406 114.66 100.631 113.844 101.139Z" fill="#000072"/>
<path d="M104.065 94.5773C103.923 94.6543 103.762 94.7244 103.605 94.7886C103.446 94.8544 103.285 94.914 103.122 94.9735C102.958 95.0319 102.794 95.0908 102.626 95.1457C102.459 95.2028 102.291 95.2588 102.112 95.3104L102.11 95.3109C102.072 95.3219 102.033 95.2997 102.022 95.2621C102.016 95.2419 102.02 95.2217 102.03 95.205C102.229 94.8806 102.491 94.6143 102.764 94.3717C102.902 94.2519 103.044 94.1384 103.192 94.0351C103.341 93.9307 103.49 93.8363 103.66 93.756C103.888 93.6486 104.16 93.7466 104.267 93.9754C104.372 94.1969 104.284 94.4589 104.073 94.5737L104.065 94.5773Z" fill="#000072"/>
<path d="M113.672 100.567C113.664 100.569 113.649 100.551 113.638 100.539C113.627 100.526 113.613 100.512 113.602 100.497C113.58 100.468 113.555 100.437 113.533 100.407C113.489 100.344 113.448 100.278 113.407 100.211C113.326 100.076 113.255 99.9288 113.173 99.7835C113.092 99.6383 113.009 99.4879 112.915 99.3399C112.827 99.186 112.727 99.0366 112.633 98.8664L112.63 98.8613C112.596 98.8012 112.618 98.7247 112.678 98.6909C112.706 98.6751 112.738 98.6715 112.767 98.6784C112.962 98.7226 113.147 98.7946 113.324 98.8845C113.501 98.9744 113.666 99.0869 113.825 99.2102C113.981 99.3357 114.13 99.4757 114.251 99.6394C114.312 99.7207 114.365 99.8088 114.411 99.9027C114.433 99.9496 114.453 99.998 114.471 100.05C114.481 100.075 114.487 100.101 114.496 100.129C114.504 100.158 114.508 100.18 114.518 100.224C114.531 100.281 114.497 100.337 114.442 100.353L113.672 100.567Z" fill="#000072"/>
<path d="M115.948 97.8934C115.942 97.8969 115.923 97.8812 115.91 97.8717C115.897 97.8606 115.881 97.8499 115.868 97.8372C115.84 97.8127 115.81 97.787 115.783 97.7604C115.728 97.7065 115.676 97.6494 115.624 97.5906C115.52 97.472 115.424 97.3404 115.318 97.2123C115.212 97.0842 115.103 96.9515 114.984 96.8223C114.87 96.6866 114.745 96.5582 114.622 96.4078L114.618 96.4032C114.574 96.3498 114.582 96.271 114.635 96.227C114.66 96.2065 114.69 96.1969 114.72 96.1982C114.919 96.2067 115.115 96.2443 115.305 96.3005C115.495 96.3572 115.678 96.4379 115.856 96.5306C116.032 96.6265 116.203 96.7371 116.352 96.8765C116.426 96.9452 116.495 97.0224 116.556 97.1064C116.587 97.1488 116.615 97.1926 116.642 97.2402C116.656 97.263 116.667 97.2878 116.68 97.3139C116.693 97.3405 116.701 97.3618 116.719 97.403C116.742 97.4566 116.719 97.5186 116.667 97.5439L115.948 97.8934Z" fill="#000072"/>
<path d="M131.643 81.6422C131.643 81.6422 128.229 78.4812 125.884 78.1975C125.884 78.1975 126.573 77.3265 127.274 75.968C127.491 75.5491 127.71 75.0827 127.909 74.5817C128.281 73.647 128.587 72.5892 128.699 71.4823C128.76 70.8848 128.763 70.2736 128.69 69.6589C128.621 69.0798 128.483 68.4993 128.261 67.926C128.101 67.5098 127.894 67.0971 127.637 66.6921C127.637 66.6921 126.338 66.7907 125.136 65.5183C124.835 65.1998 124.542 64.7965 124.275 64.2836C122.097 60.0911 127.221 55.0565 132.099 59.0901C132.754 59.6311 133.42 60.3651 134.088 61.3283C139.199 68.7076 135.991 77.7109 131.643 81.6422Z" fill="#FA9B27"/>
<path d="M132.105 59.0904C133.927 66.8772 127.645 66.6895 127.645 66.6895C127.645 66.6895 125.819 66.7264 124.285 64.2823C121.782 60.294 127.229 55.0578 132.105 59.0904Z" fill="white"/>
<path d="M130.237 76.6411C129.632 76.6794 128.426 76.6454 127.272 75.9714C127.488 75.5528 127.707 75.0863 127.906 74.5849C128.414 75.0468 129.174 75.6506 130.302 76.3854C130.414 76.4597 130.371 76.6336 130.237 76.6411Z" fill="#F96328"/>
<path d="M131.264 71.9452C130.729 71.9789 129.724 71.9557 128.699 71.4834C128.759 70.886 128.764 70.2745 128.69 69.6603C129.187 70.1439 130.004 70.8244 131.33 71.6894C131.442 71.7636 131.399 71.9377 131.264 71.9452Z" fill="#F96328"/>
<g opacity="0.3">
<path d="M134.086 61.3289C133.417 60.365 132.75 59.6314 132.095 59.0903C131.828 58.8695 131.56 58.6775 131.292 58.5093C131.689 58.929 132.088 59.4214 132.488 59.9979C137.605 67.3782 134.397 76.38 130.046 80.3101C130.046 80.3101 128.212 78.6148 126.309 77.5951C126.051 77.9794 125.88 78.1957 125.88 78.1957C128.226 78.4799 131.644 81.6417 131.644 81.6417C135.995 77.7111 139.203 68.7093 134.086 61.3289Z" fill="#000072"/>
</g>
<g opacity="0.3">
<path d="M132.414 61.1087C134.649 67.0847 128.268 67.9229 128.268 67.9229C128.107 67.507 127.901 67.0945 127.643 66.6891C127.643 66.6891 126.345 66.7878 125.143 65.5154C125.192 65.5232 125.243 65.5321 125.294 65.5406C130.434 66.4209 132.414 61.1087 132.414 61.1087Z" fill="#000072"/>
</g>
<path d="M126.662 77.8992C128.59 78.4798 130.816 80.3099 131.635 81.0226C135.482 77.2705 138.688 68.7723 133.712 61.5902C130.929 57.5738 127.962 57.4516 126.113 58.6788C124.478 59.7629 123.457 62.1215 124.661 64.0407C126.021 66.2093 127.565 66.2341 127.631 66.2343C127.787 66.2342 127.937 66.3141 128.021 66.4462C129.441 68.68 129.577 71.4785 128.415 74.5404C127.85 76.0279 127.116 77.2283 126.662 77.8992ZM131.884 82.0331C131.713 82.1393 131.487 82.1218 131.334 81.9799C131.3 81.949 127.999 78.9154 125.83 78.6519C125.665 78.6323 125.524 78.5246 125.462 78.3713C125.398 78.2174 125.423 78.042 125.526 77.9122C125.583 77.8396 130.183 71.9055 127.368 67.1297C126.746 67.045 125.202 66.6212 123.888 64.5284C122.552 62.3962 123.323 59.4288 125.609 57.9139C126.841 57.0931 128.329 56.8664 129.781 57.2759C131.475 57.7535 133.049 59.0295 134.462 61.0677C137.484 65.4297 137.434 69.8916 136.861 72.8657C136.177 76.412 134.341 79.8206 131.949 81.984C131.928 82.0025 131.906 82.0186 131.884 82.0331Z" fill="#000072"/>
<path d="M127.602 66.2331C127.661 66.2247 127.745 66.2103 127.817 66.1964L128.045 66.1503C128.197 66.1169 128.348 66.0801 128.498 66.0393C128.798 65.9573 129.094 65.8601 129.379 65.7431C129.949 65.5118 130.479 65.2018 130.91 64.796C131.123 64.5922 131.321 64.3717 131.472 64.1186C131.625 63.8672 131.749 63.5968 131.844 63.3102C132.03 62.734 132.096 62.1004 132.123 61.4318L132.123 61.4301C132.126 61.3672 132.179 61.3187 132.242 61.321C132.288 61.3231 132.327 61.3531 132.343 61.3942C132.59 62.0382 132.676 62.7645 132.553 63.4874C132.419 64.207 132.055 64.899 131.543 65.4322C131.033 65.9698 130.405 66.3639 129.749 66.6383C129.42 66.7754 129.084 66.8884 128.74 66.9718C128.569 67.016 128.396 67.0502 128.222 67.0805C128.135 67.0953 128.048 67.109 127.959 67.1194C127.867 67.1296 127.787 67.1392 127.68 67.146C127.429 67.1628 127.211 66.972 127.194 66.7195C127.178 66.4787 127.349 66.2692 127.584 66.2356L127.602 66.2331Z" fill="#000072"/>
<path d="M131.335 65.1812C131.278 65.1587 131.246 65.1451 131.206 65.1261C131.167 65.1083 131.132 65.0896 131.096 65.0708C131.025 65.0316 130.956 64.9914 130.891 64.947C130.759 64.8591 130.636 64.7623 130.521 64.658C130.292 64.4485 130.089 64.2136 129.918 63.9586C129.835 63.8298 129.749 63.7042 129.681 63.5673L129.576 63.3667L129.485 63.158C129.454 63.0896 129.426 63.0198 129.404 62.9474C129.38 62.8755 129.355 62.8052 129.334 62.7335C129.292 62.5894 129.262 62.4415 129.235 62.2948C129.226 62.2396 129.262 62.1871 129.317 62.1774C129.351 62.1712 129.384 62.1832 129.406 62.2058L129.412 62.2116C129.516 62.317 129.606 62.4267 129.701 62.5306C129.799 62.6335 129.887 62.7387 129.985 62.8366C130.171 63.0387 130.37 63.2219 130.561 63.4038C130.761 63.5782 130.96 63.746 131.16 63.9056C131.208 63.9476 131.258 63.9869 131.309 64.0246L131.458 64.1415C131.508 64.1786 131.557 64.2195 131.606 64.2544L131.677 64.3096C131.698 64.3271 131.728 64.3473 131.733 64.3575L131.856 64.565C131.977 64.7685 131.91 65.0309 131.707 65.1511C131.591 65.2205 131.453 65.2264 131.335 65.1812Z" fill="#000072"/>
<path d="M128.336 66.9664C128.279 66.9422 128.248 66.9275 128.208 66.9075C128.17 66.8881 128.135 66.8682 128.1 66.8483C128.03 66.8065 127.963 66.7647 127.899 66.7181C127.771 66.6265 127.65 66.5254 127.538 66.4179C127.316 66.2009 127.12 65.9597 126.958 65.6991C126.879 65.5682 126.797 65.44 126.733 65.3011L126.634 65.0969L126.55 64.8857C126.522 64.8158 126.496 64.7455 126.476 64.6721C126.454 64.5998 126.431 64.529 126.412 64.4563C126.375 64.3108 126.349 64.1624 126.328 64.0149C126.32 63.9592 126.358 63.9079 126.413 63.8999C126.447 63.8948 126.479 63.9078 126.501 63.931L126.507 63.9373C126.607 64.0459 126.694 64.1582 126.786 64.2653C126.88 64.3708 126.965 64.4792 127.06 64.5803C127.24 64.7881 127.432 64.9778 127.618 65.1649C127.812 65.3463 128.006 65.5199 128.201 65.6859C128.248 65.7289 128.296 65.7704 128.346 65.8097L128.492 65.9308C128.541 65.9696 128.587 66.0121 128.635 66.0486L128.705 66.1059C128.725 66.124 128.754 66.1458 128.76 66.1554L128.876 66.367C128.99 66.5741 128.915 66.834 128.709 66.948C128.59 67.0139 128.452 67.0153 128.336 66.9664Z" fill="#000072"/>
<path d="M107.085 77.5916C107.113 77.5741 107.15 77.5752 107.177 77.598C107.211 77.6261 107.216 77.6761 107.188 77.7103L96.495 90.7121C96.466 90.7456 96.4172 90.7511 96.3831 90.723C96.3491 90.6949 96.3447 90.6449 96.3721 90.6108L107.065 77.6084C107.071 77.6015 107.077 77.5962 107.085 77.5916Z" fill="#300804"/>
<path d="M106.744 77.1212C106.777 77.1011 106.819 77.1063 106.845 77.1357C106.874 77.1686 106.872 77.2188 106.84 77.2483L93.3754 89.3898C93.346 89.4189 93.2926 89.417 93.2632 89.3836C93.2338 89.3513 93.2365 89.3006 93.2687 89.271L106.733 77.1295C106.736 77.1263 106.74 77.1237 106.744 77.1212Z" fill="#300804"/>
<path d="M106.488 76.7067C106.523 76.6851 106.569 76.6938 106.594 76.7275C106.62 76.7636 106.612 76.813 106.576 76.839L92.3369 87.1964C92.3108 87.2256 92.2523 87.2147 92.2264 87.1787C92.2004 87.1432 92.2086 87.0933 92.2439 87.0678L106.483 76.7098C106.484 76.7087 106.486 76.7077 106.488 76.7067Z" fill="#300804"/>
<path d="M95.1705 83.1004L106.225 76.2781C106.262 76.2549 106.311 76.2665 106.334 76.304C106.356 76.3416 106.345 76.3903 106.308 76.4135L95.2544 83.2358C95.2171 83.259 95.168 83.2473 95.1448 83.2098C95.1222 83.1723 95.1332 83.1235 95.1705 83.1004Z" fill="#300804"/>
<path d="M111.693 74.6971C111.665 74.7146 111.649 74.7487 111.657 74.7828C111.668 74.8257 111.711 74.852 111.753 74.8423L128.104 70.9968C128.147 70.9855 128.173 70.9436 128.163 70.9012C128.153 70.8582 128.111 70.8314 128.068 70.8416L111.717 74.6871C111.708 74.689 111.7 74.6925 111.693 74.6971Z" fill="#300804"/>
<path d="M111.422 74.1802C111.39 74.2002 111.376 74.2411 111.39 74.2771C111.407 74.3182 111.453 74.3379 111.494 74.3221L128.308 67.6027C128.347 67.589 128.369 67.5402 128.353 67.4991C128.336 67.4581 128.29 67.4383 128.249 67.4547L111.435 74.1741C111.43 74.1755 111.426 74.1776 111.422 74.1802Z" fill="#300804"/>
<path d="M111.166 73.7657C111.131 73.7873 111.118 73.8332 111.138 73.8706C111.158 73.9096 111.206 73.9245 111.245 73.9036L126.812 65.6948C126.849 65.6844 126.866 65.6265 126.845 65.5874C126.825 65.5484 126.777 65.5335 126.738 65.5544L111.171 73.7632C111.169 73.7636 111.167 73.7647 111.166 73.7657Z" fill="#300804"/>
<path d="M121.9 66.4289L110.902 73.3424C110.865 73.3656 110.854 73.4154 110.877 73.4524C110.901 73.4894 110.949 73.501 110.987 73.4778L121.984 66.5644C122.021 66.5406 122.033 66.4914 122.009 66.4543C121.986 66.4173 121.937 66.4057 121.9 66.4289Z" fill="#300804"/>
<path d="M172.409 123.804C172.409 125.088 171.641 126 170.501 126.276L172.289 129.636H170.753L169.085 126.36H167.561V129.636H166.169V121.236H169.769C171.329 121.236 172.409 122.256 172.409 123.804ZM167.561 122.508V125.088H169.625C170.489 125.088 171.017 124.608 171.017 123.804C171.017 122.988 170.501 122.508 169.625 122.508H167.561ZM173.167 126.624C173.167 124.86 174.403 123.54 176.131 123.54C177.859 123.54 179.011 124.776 179.011 126.528V127.104H174.535C174.595 128.028 175.255 128.664 176.215 128.664C177.067 128.664 177.535 128.208 177.799 127.692L178.891 128.316C178.459 128.988 177.739 129.804 176.239 129.804C174.439 129.804 173.167 128.436 173.167 126.624ZM174.535 126.12H177.655C177.595 125.232 177.031 124.68 176.119 124.68C175.183 124.68 174.643 125.232 174.535 126.12ZM179.922 125.34C179.922 124.236 180.954 123.552 182.238 123.552C183.45 123.552 184.278 124.056 185.142 124.992L184.182 125.724C183.63 125.028 182.97 124.632 182.226 124.632C181.614 124.632 181.218 124.896 181.218 125.328C181.218 125.832 181.722 125.916 182.358 126L182.706 126.048C184.326 126.252 185.202 126.66 185.202 127.824C185.202 128.988 184.11 129.804 182.562 129.804C180.906 129.804 179.982 128.892 179.478 128.04L180.582 127.392C180.954 128.22 181.734 128.7 182.598 128.7C183.33 128.7 183.906 128.376 183.906 127.86C183.906 127.332 183.222 127.26 182.586 127.176L182.238 127.128C180.738 126.936 179.922 126.456 179.922 125.34ZM185.917 126.624C185.917 124.86 187.153 123.54 188.881 123.54C190.609 123.54 191.761 124.776 191.761 126.528V127.104H187.285C187.345 128.028 188.005 128.664 188.965 128.664C189.817 128.664 190.285 128.208 190.549 127.692L191.641 128.316C191.209 128.988 190.489 129.804 188.989 129.804C187.189 129.804 185.917 128.436 185.917 126.624ZM187.285 126.12H190.405C190.345 125.232 189.781 124.68 188.869 124.68C187.933 124.68 187.393 125.232 187.285 126.12ZM192.636 125.172C193.2 124.272 194.076 123.552 195.516 123.552C197.124 123.552 198.156 124.476 198.156 125.88V129.636H196.86V128.748H196.692C196.476 129.216 195.96 129.804 194.724 129.804C193.392 129.804 192.516 129.084 192.516 127.98C192.516 126.972 193.296 126.36 194.628 126.228L196.848 126V125.844C196.848 125.16 196.356 124.704 195.468 124.704C194.592 124.704 194.064 125.136 193.74 125.796L192.636 125.172ZM193.884 127.92C193.884 128.4 194.28 128.712 195 128.712C196.224 128.712 196.848 127.98 196.848 127.068V126.972L194.916 127.176C194.292 127.236 193.884 127.44 193.884 127.92ZM200.886 123.72V124.632H201.054C201.27 123.984 201.762 123.696 202.566 123.696H203.19V124.932H202.23C201.426 124.932 200.922 125.376 200.922 126.24V129.636H199.602V123.72H200.886ZM203.496 126.672C203.496 124.848 204.828 123.552 206.568 123.552C208.188 123.552 209.22 124.5 209.496 125.832L208.2 126.132C208.104 125.364 207.564 124.74 206.58 124.74C205.56 124.74 204.816 125.508 204.816 126.672C204.816 127.836 205.536 128.616 206.592 128.616C207.612 128.616 208.056 127.992 208.212 127.224L209.508 127.524C209.232 128.76 208.284 129.804 206.58 129.804C204.828 129.804 203.496 128.496 203.496 126.672ZM210.594 121.236H211.914V124.692H212.058C212.322 124.14 212.862 123.624 213.99 123.624C215.274 123.624 216.294 124.5 216.294 126.084V129.636H214.974V126.204C214.974 125.28 214.458 124.776 213.546 124.776C212.514 124.776 211.914 125.424 211.914 126.564V129.636H210.594V121.236Z" fill="white"/>
<path d="M155.424 84.0364H165.6L174.912 117.636H168.384L166.368 110.148H154.656L152.64 117.636H146.112L155.424 84.0364ZM156.144 104.388H164.88L160.8 89.3164H160.224L156.144 104.388ZM183.72 84.0364V117.636H177.672V84.0364H183.72ZM187.67 105.54C187.67 98.3404 192.614 93.1564 199.622 93.1564C206.534 93.1564 211.19 98.0044 211.19 105.156V107.508H193.862C194.102 110.676 196.358 113.124 199.814 113.124C203.174 113.124 204.95 111.252 205.766 109.572L210.71 112.452C209.078 114.948 206.294 118.308 199.91 118.308C192.806 118.308 187.67 112.932 187.67 105.54ZM193.91 103.284H205.046C204.614 100.26 202.694 98.3404 199.574 98.3404C196.166 98.3404 194.39 100.356 193.91 103.284ZM212.784 93.8284H218.832V88.9324C218.832 86.1484 220.848 84.0364 223.632 84.0364H229.872V89.2204H226.224C225.36 89.2204 224.88 89.7004 224.88 90.6604V93.8284H231.12V99.0124H224.88V117.636H218.832V99.0124H212.784V93.8284Z" fill="#4DA3FF"/>
</svg>
